<?xml version="1.0" standalone="no"?>
<!DOCTYPE svg PUBLIC "-//W3C//DTD SVG 20010904//EN"
 "http://www.w3.org/TR/2001/REC-SVG-20010904/DTD/svg10.dtd">
<svg version="1.0" xmlns="http://www.w3.org/2000/svg"
 width="512.000000pt" height="512.000000pt" viewBox="0 0 512.000000 512.000000"
 preserveAspectRatio="xMidYMid meet">
<metadata>
Created by potrace 1.14, written by Peter Selinger 2001-2017
</metadata>
<g transform="translate(0.000000,512.000000) scale(0.100000,-0.100000)"
fill="#000000" stroke="none">
<path d="M2727 5053 c-11 -11 -8 -49 7 -77 l13 -26 13 30 c20 48 -5 102 -33
73z"/>
<path d="M2383 4912 c-61 -64 -117 -122 -124 -129 -8 -8 -12 -79 -13 -244 -1
-147 -5 -234 -11 -236 -7 -2 -10 73 -10 217 0 121 -2 220 -6 220 -3 0 -42 -38
-87 -84 l-82 -85 0 -160 c0 -96 -4 -162 -10 -166 -5 -3 -10 -15 -10 -25 0 -19
-28 -60 -40 -60 -3 0 -13 13 -23 29 -14 23 -17 54 -17 153 l-1 123 -28 -31
c-22 -24 -28 -39 -26 -67 2 -21 -2 -41 -10 -47 -10 -8 -12 -3 -10 25 1 19 -1
35 -4 35 -3 0 -29 -24 -59 -52 -44 -44 -54 -50 -63 -38 -8 11 -12 12 -16 3 -2
-7 -10 -13 -17 -13 -15 0 -55 69 -55 96 -1 34 -4 54 -9 54 -11 0 -45 -48 -59
-82 -15 -37 -15 -38 -67 -34 -93 7 -183 47 -248 110 -26 25 -49 46 -52 46 -3
0 -12 -16 -21 -36 -12 -30 -18 -34 -37 -29 -13 4 -36 16 -52 27 -23 17 -30 18
-37 7 -6 -11 -11 -11 -21 -1 -20 20 -47 15 -43 -9 3 -17 0 -19 -24 -16 -16 3
-37 10 -48 16 -27 14 -34 5 -21 -25 16 -34 3 -42 -66 -45 -66 -3 -79 -12 -115
-83 -33 -67 -37 -132 -13 -207 21 -67 32 -138 38 -249 8 -144 30 -202 129
-337 8 -10 -36 -59 -183 -205 -106 -105 -190 -193 -188 -195 2 -3 22 13 43 34
22 21 114 111 205 201 91 89 169 162 174 162 5 -1 20 -9 32 -20 l24 -20 -62
-57 c-35 -32 -99 -93 -144 -137 l-81 -79 70 61 c39 33 106 94 150 135 66 62
83 73 98 65 18 -9 18 -11 1 -29 -9 -10 -12 -19 -7 -19 6 0 16 7 23 15 11 13
26 8 111 -38 58 -30 97 -57 94 -64 -2 -7 2 -10 10 -7 8 3 19 3 25 -1 14 -8 -8
-44 -62 -100 -21 -22 -38 -43 -38 -47 0 -4 27 21 60 55 33 34 60 66 60 71 0 5
8 1 18 -10 18 -18 18 -20 1 -62 -10 -23 -30 -54 -44 -69 -14 -16 -25 -31 -25
-35 0 -5 -25 -8 -57 -8 -54 0 -55 1 -40 18 10 10 17 22 17 26 0 5 -8 -2 -18
-14 -17 -21 -27 -22 -158 -25 -168 -3 -261 -11 -340 -30 -32 -7 -59 -13 -59
-12 -1 14 -26 41 -37 38 -7 -3 -26 -5 -42 -5 -16 -1 -31 -7 -34 -13 -2 -7 -9
-13 -15 -13 -26 0 -201 -72 -212 -87 -6 -8 -28 -16 -47 -18 -40 -2 -95 -31
-112 -57 -8 -14 -5 -35 16 -92 l26 -73 -69 -69 c-38 -38 -69 -76 -69 -85 0
-10 19 -36 41 -59 40 -40 70 -75 158 -178 20 -24 55 -63 79 -87 23 -23 42 -47
42 -51 0 -5 -33 -43 -73 -84 -85 -88 -117 -128 -117 -145 0 -7 28 -41 63 -77
34 -36 166 -172 292 -303 127 -132 252 -261 279 -288 48 -48 48 -50 52 -120 4
-93 44 -174 124 -254 52 -52 139 -107 188 -118 89 -22 108 -27 119 -37 10 -8
10 -14 2 -24 -6 -8 -16 -14 -22 -14 -28 0 -237 -157 -237 -179 0 -4 46 -7 101
-7 l102 1 3 -28 c4 -41 36 -98 68 -121 18 -14 44 -21 77 -22 28 -1 53 -4 55
-7 3 -3 7 -21 10 -40 13 -105 52 -122 269 -121 166 0 276 21 466 88 l96 34 84
-80 c46 -44 113 -107 148 -141 l63 -61 168 173 167 173 44 -28 c24 -16 54 -34
66 -40 12 -7 76 -44 141 -83 l119 -71 249 59 c137 32 252 57 256 55 4 -3 3
-13 -2 -22 -15 -26 -100 -234 -100 -245 0 -8 160 209 202 274 15 24 66 44 158
63 14 3 63 15 110 26 47 11 96 23 110 26 78 15 130 36 130 50 0 9 -24 50 -53
92 -75 107 -74 104 -30 86 21 -8 45 -18 53 -23 8 -4 71 -32 140 -61 69 -29
192 -81 273 -116 81 -35 153 -64 159 -64 10 0 -64 57 -152 118 -89 61 -390
276 -413 295 l-29 23 41 27 c22 15 45 27 51 27 9 0 7 -26 -5 -67 -5 -17 23
-37 90 -63 33 -13 74 -28 90 -35 181 -74 274 -107 292 -103 38 7 26 50 -46
163 -128 203 -170 272 -173 286 -2 9 8 14 32 15 19 1 47 2 61 3 21 1 30 10 46
47 l20 45 -58 172 c-32 95 -63 180 -69 189 -7 13 -5 21 12 32 27 19 31 16 19
-18 -13 -33 -1 -33 33 0 22 23 32 49 27 77 0 4 3 7 8 7 5 0 9 -11 9 -25 0 -30
28 -66 47 -59 18 7 10 66 -12 82 -9 6 -12 12 -5 12 20 0 52 43 46 62 -3 10 -1
18 3 18 5 0 17 6 27 13 16 12 16 14 -8 40 -18 20 -35 27 -61 27 -40 0 -47 15
-11 24 13 3 31 17 40 31 17 26 20 42 17 108 l-1 38 -26 -18 c-14 -10 -36 -42
-49 -70 -13 -29 -30 -53 -36 -53 -10 0 -10 3 -1 12 15 15 16 32 2 23 -16 -10
-49 5 -44 20 4 9 -6 16 -27 20 -42 9 -49 4 204 146 111 62 204 114 206 115 2
2 5 19 8 38 3 32 -1 38 -49 74 -29 21 -80 55 -113 76 -33 20 -105 66 -160 101
-82 53 -108 64 -143 65 -40 0 -42 1 -32 20 9 16 15 18 30 10 29 -16 30 -13 14
32 l-14 41 22 -19 c13 -10 29 -27 36 -37 11 -14 17 -15 27 -7 11 9 15 4 21
-25 6 -33 7 -35 20 -17 7 10 16 31 20 45 3 15 12 31 19 35 14 7 28 88 19 104
-3 5 -12 4 -20 -3 -7 -6 -20 -9 -29 -5 -12 4 -11 10 9 31 27 29 38 32 30 8 -5
-17 -5 -17 6 -1 8 13 16 15 34 8 24 -9 93 2 128 21 16 8 17 13 7 25 -31 38
-100 52 -136 29 -26 -17 -53 -14 -53 6 0 8 5 7 17 -2 9 -8 14 -9 10 -3 -6 10
51 64 68 64 3 0 23 11 43 25 l37 25 -51 0 c-58 0 -98 -24 -108 -65 -6 -22 -9
-23 -26 -13 -13 9 -16 16 -9 24 7 9 5 16 -10 23 -25 14 -33 14 -68 0 -27 -10
-28 -11 -8 -25 19 -15 19 -15 -7 -10 -16 3 -38 8 -51 11 -22 4 -67 65 -48 65
5 0 12 -4 16 -9 3 -6 20 -1 39 10 34 20 66 71 66 104 0 9 6 15 13 13 16 -6 34
-45 40 -89 2 -19 10 -46 18 -60 7 -13 13 -27 14 -31 0 -3 3 -9 8 -12 4 -3 5
-3 2 0 -2 4 4 19 14 33 11 14 20 35 22 46 4 26 -10 67 -21 60 -4 -2 -10 8 -13
23 -3 15 -17 38 -30 52 -19 20 -21 28 -12 37 9 8 16 8 23 1 8 -8 15 -8 26 1
12 10 20 9 40 -4 28 -19 32 -15 40 35 4 27 -16 85 -39 110 -8 8 -11 21 -7 27
5 9 26 1 68 -26 34 -21 71 -42 83 -46 20 -6 20 -4 -7 42 -31 53 -78 78 -119
62 -20 -7 -22 -5 -21 16 2 25 18 36 18 13 0 -9 18 -13 55 -13 42 0 59 5 76 21
24 24 18 44 -11 44 -23 0 -89 32 -90 43 0 5 4 5 10 2 5 -3 20 -1 32 6 28 15
73 58 67 64 -3 2 -29 -2 -59 -10 -30 -7 -68 -16 -85 -18 -16 -3 -36 -6 -43 -8
-8 -2 -18 6 -23 19 -9 24 0 29 19 10 8 -8 12 -9 12 -1 0 6 8 9 18 7 34 -8 82
52 82 102 0 32 0 32 -32 21 -33 -13 -122 -90 -113 -99 7 -7 -65 -9 -97 -2 -22
4 -26 11 -26 34 1 28 2 28 25 13 12 -8 23 -12 23 -8 0 4 6 3 13 -2 6 -6 20
-13 30 -16 18 -7 18 -6 0 25 -16 28 -25 33 -59 34 -21 0 -42 -4 -45 -9 -4 -5
-9 -5 -13 2 -4 6 -2 12 3 12 6 1 16 3 21 4 6 1 17 3 25 4 14 1 45 49 45 70 0
12 -95 -52 -123 -83 -9 -10 -20 -17 -23 -13 -10 9 6 47 20 47 33 0 62 75 42
108 -6 10 -11 10 -22 1 -11 -9 -14 -7 -15 12 -1 13 -1 28 0 32 1 4 -5 15 -14
23 -8 9 -15 25 -15 37 -1 21 -1 21 -23 -4 -19 -23 -28 -26 -75 -24 -70 4 -85
-1 -126 -41 -19 -18 -36 -28 -38 -22 -2 6 19 34 47 62 57 57 68 83 51 118 -17
34 -37 33 -78 -6 -39 -37 -55 -84 -39 -115 13 -24 14 -31 2 -31 -5 0 -12 8
-15 18 -11 33 -63 55 -112 47 -50 -7 -54 -18 -21 -53 21 -24 8 -22 -23 4 -8 6
-31 16 -50 22 -19 5 -42 13 -51 16 -12 5 -18 0 -22 -21 -8 -36 -27 -62 -33
-47 -3 7 -13 10 -22 8 -35 -9 -47 12 -47 85 0 89 -15 108 -88 109 -28 1 -61 4
-72 6 -11 2 -25 5 -31 5 -15 1 -36 49 -24 56 5 3 14 -3 19 -14 14 -26 64 -42
98 -32 33 10 93 43 93 52 0 14 -68 34 -115 34 -47 0 -50 1 -47 25 11 101 9
113 -16 88 -14 -14 -15 -12 -3 30 11 39 2 40 -37 7 -17 -14 -34 -25 -40 -25
-14 0 -62 -66 -62 -85 0 -12 4 -14 19 -5 14 7 22 7 27 -1 16 -27 -55 -40 -76
-14 -10 13 -10 19 3 33 9 10 18 27 20 38 2 10 9 29 16 42 12 23 12 23 -26 16
-21 -4 -56 -22 -77 -40 -22 -19 -43 -34 -48 -34 -4 0 -14 15 -21 33 -13 28
-12 35 4 59 23 32 24 38 3 38 -8 0 -12 4 -9 10 3 5 -5 29 -17 52 -26 49 -34
93 -19 103 6 3 11 -2 11 -13 0 -25 41 -62 68 -62 21 0 26 13 23 60 0 8 6 2 13
-15 8 -16 12 -33 10 -37 -2 -3 10 -18 28 -33 37 -31 45 -22 28 30 -6 19 -8 39
-5 45 4 6 0 21 -7 33 -8 12 -18 31 -22 42 -6 16 -5 18 5 8 28 -28 103 -4 84
27 -9 14 -55 12 -85 -5 -29 -17 -40 -18 -40 -6 0 5 13 12 29 16 32 7 54 33 65
78 8 34 -4 35 -32 2 -21 -24 -23 -24 -41 -8 -11 9 -18 21 -15 25 3 5 0 23 -6
39 -12 28 -14 29 -31 13 -20 -18 -46 -89 -43 -121 1 -12 -5 -24 -14 -28 -9 -3
-12 0 -9 9 3 8 2 27 -2 42 -7 26 -7 26 -25 9 -10 -10 -28 -20 -40 -21 -11 -1
-33 -6 -48 -9 -22 -6 -28 -4 -28 9 0 19 -21 21 -38 4 -13 -13 -15 -8 -12 39 1
17 -6 46 -15 63 -14 27 -18 30 -32 18 -15 -12 -15 -11 -5 9 12 22 17 113 6
113 -3 0 -19 -10 -36 -21 -39 -28 -63 -82 -48 -109 6 -11 8 -20 4 -20 -3 0 -2
-6 4 -13 7 -8 7 -17 -2 -30 -18 -23 -23 -22 -30 10 -5 17 -3 29 6 34 9 6 10 9
1 9 -14 0 -28 69 -33 155 -1 16 -5 12 -20 -15 -11 -19 -19 -44 -20 -56 0 -35
-12 -35 -53 2 -31 28 -46 35 -69 32 -16 -3 -31 -1 -34 4 -3 4 0 8 6 8 20 0 60
52 60 78 0 22 -3 24 -35 20 -26 -3 -32 -1 -24 8 7 9 5 16 -10 23 -30 16 -52
13 -58 -8 -3 -11 -12 -22 -21 -26 -9 -3 -13 -3 -10 1 8 8 -17 59 -33 70 -6 3
-28 8 -48 11 l-36 4 35 -30 c19 -16 53 -45 75 -65 22 -20 43 -36 48 -36 4 0 7
-4 7 -8 0 -15 -61 0 -68 17 -3 9 -10 19 -16 23 -17 12 -79 8 -104 -6 l-24 -13
24 -15 c36 -23 84 -37 108 -31 14 4 26 -1 35 -13 20 -26 19 -39 -1 -19 -16 15
-19 13 -46 -32 -21 -36 -27 -41 -22 -20 5 23 4 26 -12 21 -47 -15 -63 -29 -70
-58 l-7 -31 -9 32 c-5 18 -18 38 -31 44 -12 7 -24 16 -27 20 -3 5 -6 58 -5
119 0 60 -2 110 -5 110 -3 0 -55 -53 -117 -118z m471 -150 c2 -4 -10 -20 -28
-34 l-33 -26 16 34 c15 32 34 43 45 26z m-276 -67 c3 -2 11 3 19 13 14 16 14
16 9 -1 -3 -10 -6 -23 -6 -28 0 -5 -13 -3 -30 6 -16 8 -38 15 -50 15 -12 0
-19 4 -15 9 5 9 61 -2 73 -14z m452 5 c0 -5 -8 -10 -17 -10 -15 0 -16 2 -3 10
19 12 20 12 20 0z m90 -40 c0 -5 -2 -10 -4 -10 -3 0 -8 5 -11 10 -3 6 -1 10 4
10 6 0 11 -4 11 -10z m-520 -19 c0 -16 -20 -23 -46 -17 -36 9 -29 26 11 26 19
0 35 -4 35 -9z m850 -71 c0 -5 -2 -10 -4 -10 -3 0 -8 5 -11 10 -3 6 -1 10 4
10 6 0 11 -4 11 -10z m40 7 c0 -2 -13 -16 -30 -32 -23 -22 -30 -25 -30 -12 0
9 6 17 14 17 8 0 16 7 20 15 4 12 26 22 26 12z m-285 -75 c-8 -8 -25 10 -19
20 4 6 9 5 15 -3 4 -7 6 -15 4 -17z m32 22 c-3 -3 -12 -4 -19 -1 -8 3 -5 6 6
6 11 1 17 -2 13 -5z m-74 -27 c7 -7 13 -17 14 -22 1 -6 5 -18 8 -28 7 -16 5
-16 -19 -6 -19 9 -26 20 -26 41 0 31 5 34 23 15z m157 -28 c0 -16 -28 -21 -47
-10 -17 10 -17 10 0 11 10 0 16 4 13 9 -4 5 3 7 14 4 11 -3 20 -9 20 -14z
m-180 -45 c0 -2 -9 0 -20 6 -11 6 -20 13 -20 16 0 2 9 0 20 -6 11 -6 20 -13
20 -16z m-1867 -36 c18 -18 45 -49 60 -69 20 -26 40 -40 70 -48 49 -12 79 -40
102 -93 27 -65 21 -68 -60 -27 -41 21 -75 37 -75 34 0 -2 -16 3 -35 11 -19 8
-35 10 -35 6 0 -5 39 -26 88 -47 48 -22 100 -48 115 -59 41 -30 103 -117 112
-156 l7 -35 -23 21 c-29 26 -88 46 -135 46 -44 0 -52 -7 -31 -30 20 -21 12
-35 -12 -23 -29 15 -114 24 -106 11 4 -6 9 -9 12 -6 7 7 112 -33 143 -54 14
-9 53 -23 86 -30 87 -17 107 -38 143 -145 16 -49 32 -97 36 -106 5 -13 1 -15
-19 -12 -13 3 -32 0 -43 -6 -16 -9 -15 -10 7 -9 62 2 70 -2 99 -49 30 -49 34
-66 16 -69 -17 -3 -59 -23 -90 -44 -16 -11 -36 -23 -42 -26 -7 -3 -13 -10 -13
-16 0 -5 10 -2 22 6 12 9 30 16 40 16 10 0 18 7 18 15 0 17 70 38 94 29 11 -4
15 -13 11 -25 -4 -11 -2 -18 2 -17 10 3 74 -50 88 -72 5 -9 -6 -6 -28 7 -25
15 -34 17 -30 7 3 -8 10 -14 16 -14 21 0 -7 -17 -48 -30 -91 -28 -217 -111
-258 -171 -14 -20 -16 -20 -41 -4 -31 21 -32 23 -5 86 12 27 20 52 17 54 -3 3
-15 -20 -28 -50 -13 -30 -25 -55 -28 -55 -2 0 -21 12 -43 28 -39 28 -66 73
-54 91 3 6 8 20 11 31 2 11 6 29 8 40 15 66 193 249 219 224 3 -3 8 -1 11 5 4
6 -1 8 -11 6 -28 -6 -83 -36 -83 -45 0 -5 -9 -12 -21 -15 -11 -4 -19 -9 -16
-11 2 -2 -13 -22 -34 -44 -40 -42 -89 -119 -93 -145 -5 -34 -22 -34 -50 1
l-28 35 25 52 c13 29 35 74 47 100 23 49 74 92 121 103 13 3 31 7 39 9 8 2 44
4 80 4 77 1 71 17 -10 27 -149 19 -300 -5 -300 -48 0 -6 -6 -19 -14 -27 -24
-28 -58 -133 -46 -145 7 -7 10 -6 10 2 0 12 41 54 48 48 2 -2 -1 -13 -7 -25
-6 -11 -12 -31 -13 -45 -3 -33 -8 -33 -43 4 -16 16 -31 28 -33 25 -2 -2 11
-18 29 -34 28 -26 47 -61 32 -61 -2 0 -30 15 -61 33 -31 18 -76 42 -99 52 -59
26 -74 65 -57 144 5 24 6 24 41 -15 l35 -39 -30 44 c-29 41 -30 46 -17 71 8
15 12 30 9 32 -9 10 114 108 162 130 37 16 69 21 131 22 84 0 91 11 18 31 -42
12 -46 12 -85 3 -19 -5 -44 -11 -55 -13 -11 -3 -43 -13 -71 -23 -45 -17 -69
-34 -135 -94 -10 -10 -21 -18 -24 -18 -14 0 32 92 66 132 40 48 38 67 -4 27
-12 -12 -45 -39 -74 -60 -51 -38 -70 -75 -62 -120 1 -8 -3 -33 -10 -57 -10
-37 -10 -46 6 -72 24 -41 8 -50 -26 -14 -26 25 -30 39 -35 109 -7 89 -7 113
-2 135 2 8 7 34 11 58 7 42 25 68 25 38 0 -9 5 -16 10 -16 12 0 13 6 1 29 -7
13 -4 26 9 49 25 41 60 63 118 73 26 5 54 12 62 16 33 14 106 24 178 24 55 1
81 -3 123 -16 30 -10 22 11 -8 24 -31 13 -130 27 -211 30 -42 2 -13 19 43 26
30 4 55 11 55 15 0 12 -57 17 -159 14 -119 -4 -120 -5 -159 -32 -36 -26 -43
-17 -12 16 12 12 17 22 12 22 -18 0 -94 -92 -118 -143 -30 -66 -31 -94 -1 -45
12 21 32 45 45 54 27 19 29 10 2 -18 -13 -14 -18 -29 -14 -45 4 -16 -4 -45
-25 -87 -33 -68 -39 -90 -40 -150 -1 -35 -12 -44 -17 -13 -1 7 -6 30 -11 52
-11 47 -8 96 9 145 25 73 31 133 14 127 -13 -5 -15 71 -3 108 14 40 227 143
300 146 21 0 21 1 2 8 -11 5 -50 8 -88 7 -53 -1 -66 2 -62 13 9 23 -53 5 -95
-29 -52 -41 -110 -107 -110 -125 0 -8 -4 -15 -9 -15 -26 0 -24 96 3 147 29 57
54 64 164 49 34 -4 52 -3 52 4 0 5 -6 9 -12 8 -7 -2 -12 3 -10 11 1 7 -3 20
-10 28 -11 13 -8 13 22 1 49 -20 65 -17 63 10 -2 16 1 21 10 16 6 -4 37 -24
67 -43 47 -30 56 -22 15 12 -6 5 2 6 18 3 15 -3 39 -9 55 -12 16 -3 22 -2 15
3 -13 10 -6 53 8 53 6 0 24 -15 42 -32z m1977 -28 c0 -5 -2 -10 -4 -10 -3 0
-8 5 -11 10 -3 6 -1 10 4 10 6 0 11 -4 11 -10z m-1563 -92 c9 -10 19 -16 21
-13 3 3 16 -5 29 -17 22 -21 24 -21 17 -3 -7 19 -6 19 17 -1 43 -37 50 -39 44
-7 -6 25 -4 24 19 -12 19 -30 26 -35 26 -20 0 11 9 38 19 60 l18 40 27 -62
c16 -34 39 -72 52 -84 23 -22 25 -22 38 -4 9 12 15 14 20 7 4 -7 12 -12 17
-12 6 0 7 5 3 11 -4 7 -8 25 -10 40 l-4 28 42 -28 42 -29 44 49 c24 27 47 47
51 45 4 -3 16 9 26 25 11 16 22 29 25 29 3 0 7 -25 8 -56 2 -67 12 -87 24 -53
9 23 10 23 23 -15 18 -51 52 -87 64 -67 5 8 7 30 4 50 l-5 36 20 -24 20 -24 6
29 c4 16 15 42 25 58 l19 28 7 -48 c3 -27 13 -60 21 -74 l14 -25 -6 28 c-6 28
4 35 24 15 9 -9 12 -5 12 20 0 18 5 32 10 32 6 0 10 -4 10 -8 0 -4 13 -15 29
-25 l30 -17 99 64 c108 70 129 79 206 80 52 1 75 -12 76 -44 0 -10 -5 -8 -15
7 -13 18 -23 20 -82 19 -56 -2 -76 -8 -113 -31 -138 -89 -224 -178 -250 -259
-11 -33 -14 -36 -22 -22 -6 10 -7 31 -4 47 9 47 -10 25 -33 -37 -12 -31 -21
-79 -21 -109 0 -51 -10 -69 -25 -45 -3 6 -11 10 -16 10 -17 0 -1 -17 35 -38
l35 -21 -9 25 c-14 36 -12 125 3 152 13 22 13 22 47 -25 19 -26 37 -50 41 -53
3 -3 20 -27 37 -55 18 -27 32 -42 32 -33 0 26 19 32 42 11 12 -10 18 -13 14
-6 -5 9 3 12 29 11 44 -2 45 -13 3 -22 -18 -4 -44 -10 -58 -13 -14 -3 -32 -6
-40 -8 -8 -2 -18 -4 -21 -4 -10 -2 43 -101 53 -101 6 0 25 -12 43 -27 31 -27
50 -43 90 -73 19 -14 19 -14 5 5 -8 11 -31 38 -51 61 -79 89 -61 117 96 156
55 13 67 24 61 51 -3 11 2 17 12 18 34 3 102 18 117 27 6 4 -3 9 -20 12 l-30
6 31 17 c31 16 36 36 20 78 -8 17 21 36 69 44 35 6 91 -10 120 -34 20 -16 20
-16 1 7 -34 39 -84 65 -114 58 -56 -14 -77 -14 -84 -3 -13 20 -9 26 35 54 23
15 45 32 49 38 4 5 10 6 14 2 4 -3 1 -13 -5 -21 -15 -17 -7 -36 15 -36 8 0 28
-7 43 -15 16 -8 45 -15 65 -17 40 -2 46 -12 17 -30 -19 -12 -19 -12 2 -42 39
-56 57 -69 57 -42 0 8 -12 29 -27 46 l-27 32 45 -22 c25 -14 65 -24 94 -25 81
-4 193 -25 131 -25 -12 0 -16 -5 -13 -14 3 -8 -1 -16 -9 -18 -11 -2 -6 -16 19
-58 41 -69 64 -76 69 -23 3 30 5 34 12 18 4 -11 12 -28 17 -37 10 -19 4 -25
-34 -32 -21 -4 -32 2 -54 32 -15 20 -35 38 -43 40 -8 2 -22 10 -31 18 -8 8
-24 14 -35 14 -26 0 -99 -66 -84 -75 7 -4 16 -2 20 4 4 7 28 13 54 14 25 0 46
5 46 9 0 16 60 -22 81 -52 12 -16 35 -32 51 -35 19 -5 28 -12 24 -21 -4 -11 0
-11 21 -1 l25 11 -33 11 -33 11 47 13 c26 8 45 17 42 20 -5 10 63 84 97 106
15 9 32 14 37 11 6 -4 15 3 21 14 17 32 30 13 25 -36 -8 -61 -46 -145 -84
-185 -30 -31 -32 -32 -51 -14 -26 24 -25 26 10 50 42 28 39 45 -5 35 -21 -5
-35 -4 -35 2 0 5 -5 6 -10 3 -17 -11 1 -27 24 -21 18 4 17 2 -7 -18 l-29 -23
33 -28 c30 -25 32 -28 16 -40 -19 -14 -23 -40 -7 -50 6 -3 10 -13 10 -22 0
-11 -8 -14 -30 -11 -26 4 -30 1 -30 -19 0 -37 -16 -19 -29 33 -11 41 -10 48 6
61 10 8 12 12 6 8 -7 -3 -13 -1 -13 4 0 6 -6 11 -14 11 -7 0 -19 13 -26 29 -6
16 -17 28 -23 25 -7 -2 -37 9 -67 25 l-55 29 -30 -21 c-16 -12 -33 -26 -37
-31 -8 -12 0 -28 11 -22 4 3 23 8 42 11 18 3 35 8 37 9 8 9 88 -17 104 -33 9
-10 28 -58 43 -105 25 -82 25 -87 9 -103 -13 -13 -19 -14 -22 -5 -6 20 -18 14
-19 -10 -1 -13 -5 -38 -8 -55 -4 -25 -3 -31 8 -28 15 6 53 66 49 78 -1 5 3 7
10 5 20 -7 21 -37 3 -77 -17 -39 -83 -86 -133 -96 -25 -5 -24 -4 6 10 34 16
57 55 39 66 -5 4 -7 19 -5 33 5 25 4 25 -12 11 -9 -8 -19 -12 -23 -9 -3 3 -4
-6 -3 -20 4 -28 -26 -84 -49 -92 -8 -4 -27 2 -43 11 -26 17 -26 17 4 -16 43
-46 87 -130 114 -215 29 -95 26 -116 -24 -129 -32 -7 -49 -5 -100 14 -98 37
-107 35 -22 -3 75 -34 90 -36 144 -20 26 7 31 -13 5 -23 -9 -4 -25 -15 -35
-25 -9 -9 -34 -24 -55 -33 -36 -15 -37 -15 -65 12 -15 15 -28 31 -28 37 0 17
-32 46 -51 46 -27 0 -52 29 -39 45 9 10 6 14 -12 17 -15 2 -33 21 -55 58 -18
30 -33 47 -33 39 0 -21 65 -127 92 -150 11 -11 29 -19 39 -19 10 0 28 -14 40
-31 12 -17 32 -42 45 -56 13 -14 21 -29 18 -34 -3 -5 -3 -9 0 -9 7 0 78 41 96
56 8 6 25 15 38 18 18 6 22 4 22 -14 0 -24 -44 -69 -102 -106 -46 -30 -52 -30
-65 -1 -9 18 -26 25 -105 40 -51 9 -114 16 -138 16 l-45 -1 45 -8 c25 -4 64
-10 86 -13 74 -11 133 -29 138 -43 3 -8 1 -25 -5 -38 l-11 -23 -69 23 c-44 15
-112 27 -183 33 -124 10 -157 22 -204 75 l-31 35 -7 -32 c-4 -18 -7 -35 -6
-39 3 -14 -2 -9 -77 60 l-73 69 14 69 c8 38 19 78 23 89 7 15 -1 12 -34 -14
-24 -19 -48 -46 -54 -60 -6 -14 -12 -27 -13 -29 -1 -1 -13 3 -27 9 -16 7 -28
23 -32 40 -4 16 -11 29 -15 29 -5 0 5 -41 22 -90 32 -91 42 -100 51 -44 6 36
34 99 50 113 9 7 11 -5 7 -47 -6 -68 5 -151 25 -195 15 -32 15 -26 0 23 -7 23
-5 22 24 -9 31 -34 38 -50 24 -52 -74 -7 -91 -25 -20 -21 47 3 73 0 97 -13
l33 -17 -8 24 c-9 29 -9 72 -1 95 6 15 9 14 29 -8 37 -42 95 -81 102 -69 3 6
12 7 18 3 6 -4 39 -8 73 -9 149 -6 294 -71 402 -181 23 -23 42 -39 42 -34 0 5
-37 45 -81 89 -57 56 -80 85 -76 96 4 9 14 16 24 16 26 0 147 94 161 125 23
51 17 144 -17 240 -17 50 -34 98 -37 108 -4 10 -1 17 6 17 11 0 50 37 50 47 0
1 -7 3 -15 3 -8 0 -15 -7 -15 -15 0 -9 -9 -15 -25 -15 -15 0 -25 6 -25 15 0 9
6 12 15 9 8 -3 17 0 20 9 7 17 54 15 65 -3 5 -8 12 -1 21 19 15 34 29 41 29
14 0 -10 -21 -37 -47 -61 l-48 -43 55 21 c30 12 63 31 72 43 10 13 18 17 18 9
0 -7 -7 -20 -15 -29 -29 -29 -5 -27 25 2 37 35 39 21 4 -30 -20 -30 -23 -40
-12 -46 7 -5 9 -9 3 -10 -5 -1 -14 -3 -20 -4 -5 -2 -28 -3 -50 -4 l-40 -2 33
-17 32 -16 -32 -33 c-17 -18 -29 -33 -25 -33 3 0 15 10 27 22 26 28 31 21 15
-24 -11 -34 -11 -38 6 -43 26 -9 24 -16 -11 -50 -43 -41 -38 -51 20 -47 27 2
50 0 50 -4 0 -4 -14 -23 -31 -40 l-32 -33 37 5 c20 2 52 6 71 8 19 3 35 3 35
0 0 -15 -110 -54 -149 -53 -25 1 -59 0 -76 -1 -25 -1 -22 -4 20 -14 67 -17
155 -56 155 -69 0 -5 -12 -25 -26 -44 -14 -19 -27 -42 -29 -51 -2 -9 -4 -17
-5 -17 -1 0 -3 -8 -5 -18 -2 -11 0 -16 3 -12 4 4 7 10 8 13 3 24 46 93 82 131
13 14 12 -7 -4 -86 -2 -12 1 -25 7 -28 6 -4 9 -1 8 6 -1 8 3 33 9 56 12 40 14
41 42 33 16 -5 43 -7 60 -5 16 2 30 2 30 0 0 -2 -25 -20 -55 -40 l-55 -35 47
-60 c25 -33 49 -60 52 -60 3 0 17 -10 31 -21 l25 -20 -30 5 c-16 3 -49 8 -72
11 l-41 5 3 -75 c2 -41 9 -84 16 -96 10 -19 9 -21 -6 -16 -9 4 -22 7 -29 7 -7
0 -21 7 -32 16 -10 8 -13 13 -6 9 6 -3 12 -4 12 -1 0 2 3 12 7 22 5 14 3 16
-11 11 -15 -6 -16 -1 -12 46 5 48 4 46 -10 -18 -8 -38 -15 -83 -15 -98 0 -16
-11 -52 -26 -80 -17 -34 -20 -47 -10 -39 9 8 24 33 33 58 9 24 19 44 23 44 3
-1 21 -9 40 -19 32 -17 33 -19 14 -32 -20 -15 -79 -89 -70 -89 3 0 27 9 53 20
48 21 73 21 34 0 -12 -6 -53 -40 -91 -75 -74 -68 -97 -77 -214 -80 -33 -1 -77
-6 -97 -10 -32 -6 -42 -4 -69 19 -17 15 -38 25 -46 22 -20 -8 -42 49 -48 128
-3 37 -15 87 -26 112 -11 26 -17 49 -14 52 2 3 34 -25 69 -61 70 -73 90 -86
54 -35 -49 69 -75 92 -134 119 -43 20 -68 39 -83 63 -12 19 -28 37 -36 40 -18
7 -18 8 0 -44 8 -23 15 -44 15 -47 0 -2 -14 12 -31 32 -18 20 -46 43 -63 52
-17 9 -47 29 -66 45 -34 29 -38 30 -163 33 -83 2 -144 -2 -175 -10 -26 -7 -39
-14 -29 -15 9 -2 22 -4 27 -5 6 -1 25 -3 44 -4 19 0 41 -7 48 -14 19 -19 111
-47 135 -41 12 3 31 1 43 -6 12 -6 33 -14 47 -16 37 -7 64 -28 105 -82 50 -65
89 -155 95 -219 3 -29 9 -53 13 -53 4 0 15 27 25 60 10 34 22 63 26 65 7 5 36
-59 43 -97 2 -13 7 -36 11 -51 6 -23 2 -34 -22 -60 -49 -53 -67 -88 -52 -98
11 -6 15 -1 17 21 2 18 18 42 46 68 68 63 76 65 124 32 38 -25 46 -27 84 -18
24 6 72 11 108 13 36 1 94 12 129 24 90 31 95 27 66 -61 l-25 -73 25 30 c14
17 23 36 20 43 -5 14 14 62 25 62 19 0 18 -16 -2 -37 -12 -13 -18 -23 -14 -23
4 0 33 26 64 58 32 33 67 64 77 70 11 6 17 14 13 17 -4 4 -24 -9 -45 -29 -49
-47 -67 -52 -104 -28 l-30 19 39 35 c21 19 57 45 80 58 50 28 49 45 -1 45 -42
0 -46 5 -16 23 16 11 18 16 9 28 -10 12 -8 14 14 14 l27 0 -21 29 -20 30 27 4
c26 4 26 4 -4 6 -18 0 -33 7 -34 14 -2 21 -2 61 0 85 1 17 6 22 19 18 40 -12
130 -17 136 -8 3 6 -12 25 -34 42 -22 17 -40 35 -40 38 0 4 44 6 97 6 54 -1
216 -3 360 -5 l262 -4 60 -35 c33 -19 59 -39 58 -43 -1 -5 -5 -7 -9 -5 -3 2
-14 -7 -24 -19 -51 -58 -237 -163 -289 -163 -14 0 -25 -4 -25 -9 0 -10 67 3
113 23 18 7 77 43 131 81 55 37 105 69 113 72 26 10 12 -26 -33 -87 -96 -131
-199 -323 -211 -393 -5 -33 -4 -34 27 -35 84 -2 135 -21 114 -42 -8 -7 -75
-20 -130 -24 -44 -3 -60 -36 -69 -141 -6 -66 55 -94 170 -78 39 6 72 8 75 6
10 -9 -18 -37 -60 -60 -25 -14 -52 -31 -60 -39 -12 -12 -12 -14 6 -14 11 0 24
-3 27 -6 7 -7 -6 -36 -26 -56 -34 -34 -112 -148 -132 -195 l-24 -53 -38 14
c-33 12 -43 12 -66 -1 -15 -8 -26 -17 -23 -21 2 -4 31 -20 64 -36 55 -26 61
-33 73 -73 7 -25 18 -47 25 -50 6 -2 31 5 53 17 23 11 45 19 49 16 4 -2 29
-40 56 -83 27 -43 87 -138 133 -211 76 -120 93 -162 64 -162 -5 0 -42 13 -83
29 -40 15 -140 54 -221 86 l-149 57 7 43 c4 28 2 46 -5 50 -13 8 -70 -13 -70
-26 0 -5 -11 -9 -25 -9 -21 0 -25 -5 -25 -29 0 -31 30 -54 355 -276 90 -62
138 -97 110 -83 -19 10 -100 46 -165 73 -36 14 -83 35 -105 45 -22 10 -86 39
-142 63 l-102 45 -52 -26 c-29 -15 -68 -26 -88 -25 -36 1 -38 -1 -151 -163
-63 -91 -134 -190 -157 -222 -24 -31 -43 -60 -43 -64 0 -5 -4 -8 -10 -8 -5 0
2 26 16 58 14 31 35 82 47 112 12 30 23 57 27 60 3 3 6 12 8 20 2 8 14 37 26
65 13 27 36 79 51 115 16 36 32 69 36 74 4 5 -2 23 -14 40 -26 37 -29 47 -31
105 -2 35 -8 48 -32 67 -44 36 -61 38 -87 12 -54 -52 -88 -78 -103 -78 -19 0
-134 80 -179 125 -17 16 -43 46 -57 65 -14 19 -40 40 -57 47 l-32 12 6 -61 c4
-33 13 -78 21 -100 12 -35 12 -40 -6 -58 -11 -11 -25 -20 -31 -20 -16 0 -149
-66 -178 -89 l-24 -19 45 -20 c45 -20 45 -20 134 0 49 11 98 21 109 23 11 2
31 6 45 9 14 3 49 11 77 17 29 5 55 15 59 20 3 5 -4 24 -15 43 -19 30 -31 66
-13 40 4 -6 28 -23 53 -37 l46 -27 29 22 c16 13 44 37 63 55 l33 32 34 -26
c28 -21 34 -32 34 -62 0 -20 10 -57 23 -81 l23 -45 -29 -70 c-16 -38 -35 -83
-42 -100 -7 -16 -22 -52 -34 -80 -45 -106 -28 -95 -226 -142 -99 -24 -211 -50
-250 -59 l-70 -16 -480 287 -480 287 -40 -13 c-22 -7 -42 -13 -45 -14 -3 0 -9
-3 -15 -6 -5 -4 -35 -14 -65 -24 -30 -10 -68 -24 -85 -31 -16 -8 -79 -34 -140
-58 -115 -46 -151 -50 -117 -12 46 53 104 164 124 241 9 34 21 51 45 66 18 12
33 24 33 27 0 4 -42 32 -93 62 -288 170 -493 294 -504 304 -10 9 -8 23 8 68
26 70 53 81 122 47 l45 -22 56 23 c31 12 56 26 56 31 0 4 -12 1 -27 -7 -42
-21 -88 -27 -113 -14 -27 14 -24 18 26 26 21 3 46 8 54 9 8 2 21 4 28 4 6 1
12 8 12 17 0 10 -5 12 -12 7 -7 -4 -22 -8 -33 -9 -11 -1 -33 -4 -50 -8 -16 -3
-52 -9 -80 -12 -43 -4 -55 -11 -87 -46 -20 -23 -52 -68 -72 -102 -34 -58 -36
-65 -31 -125 3 -35 15 -81 26 -103 l20 -39 -23 12 c-91 49 -231 188 -269 270
-13 27 -27 49 -31 49 -12 0 -11 -3 19 -56 55 -99 186 -228 303 -296 49 -28 90
-55 90 -60 0 -17 -118 -27 -175 -15 -16 4 -45 9 -63 12 -73 12 -189 60 -234
98 l-28 22 24 75 c22 68 34 131 41 215 2 28 7 33 89 87 19 13 48 42 74 73 7 9
25 40 38 70 l25 55 45 -91 46 -90 51 6 c29 3 63 8 77 10 34 6 132 17 148 18
17 1 15 11 -5 34 -10 10 -14 13 -9 6 12 -19 2 -26 -41 -29 -21 -1 -51 -5 -68
-8 -71 -13 -143 -17 -149 -7 -4 5 -2 12 4 16 13 8 13 25 -1 25 -5 0 -8 -4 -4
-9 3 -5 2 -12 -3 -15 -8 -5 -23 25 -68 131 -8 18 -10 34 -6 36 4 3 59 8 123
11 l117 7 36 -57 c19 -32 37 -62 39 -68 3 -6 8 -7 13 -3 5 4 4 11 -1 15 -6 4
-23 33 -40 65 -16 31 -37 59 -46 62 -9 3 -49 3 -90 0 l-74 -5 52 35 c28 19 73
59 99 90 27 31 59 59 73 62 25 6 139 67 156 84 40 39 218 -50 300 -151 32 -40
39 -67 15 -61 -8 2 -44 4 -80 3 -75 -1 -146 -30 -194 -80 -15 -17 -34 -28 -41
-26 -14 6 -80 -24 -72 -32 3 -3 13 0 24 6 15 10 57 2 223 -40 113 -28 213 -53
222 -55 60 -13 58 132 -4 310 -50 146 -159 347 -244 451 -24 30 -30 44 -22 52
8 8 28 2 72 -23 71 -39 169 -74 223 -78 25 -2 54 -15 83 -38 25 -19 74 -47
110 -62 36 -16 79 -35 95 -42 17 -7 41 -16 54 -20 47 -14 167 -74 208 -104 23
-17 40 -25 37 -18 -2 7 -26 25 -52 42 -26 16 -62 45 -81 65 -22 23 -30 27 -22
13 14 -27 12 -27 -31 -9 -18 8 -76 32 -128 52 -113 45 -175 78 -207 110 -17
17 -35 24 -63 24 -21 0 -51 5 -67 11 l-28 11 60 29 c52 24 76 29 180 33 66 3
143 12 170 19 28 8 55 12 62 10 6 -2 14 1 18 6 8 14 -17 14 -75 0 -45 -11
-157 -15 -166 -6 -7 6 56 42 99 56 19 7 55 27 79 45 121 92 176 108 286 82 58
-13 66 -13 121 -1 39 8 42 -11 4 -27 -38 -16 -60 -16 -118 -1 -68 17 -70 8 -2
-12 82 -24 160 -24 186 -1 16 15 37 19 93 20 61 1 82 -4 128 -26 115 -58 180
-128 196 -209 3 -19 7 -41 9 -49 2 -8 4 -18 4 -22 1 -5 5 -8 10 -8 13 0 2 77
-20 144 -11 32 -18 60 -16 62 2 2 14 -17 27 -42 12 -26 31 -49 41 -51 42 -11
64 -89 60 -208 -2 -38 -9 -87 -16 -108 -18 -53 -4 -53 29 0 30 47 59 145 49
169 -4 10 0 12 13 7 12 -4 15 -3 10 5 -4 7 -14 12 -22 12 -17 0 -18 12 -2 28
9 9 9 12 -1 12 -8 0 -11 7 -8 20 3 10 0 21 -5 22 -6 2 -12 24 -15 48 -3 25
-19 68 -35 95 -31 51 -110 135 -146 154 -32 17 -50 12 -21 -5 29 -19 83 -97
69 -102 -5 -2 -24 8 -42 21 -37 27 -231 107 -261 107 -10 0 -27 -5 -39 -11
-11 -6 -29 -12 -41 -14 -12 -2 -40 -7 -62 -10 -55 -9 -154 -7 -192 4 -27 8
-76 8 -163 -1 -8 0 -17 -4 -20 -7 -3 -3 -23 -19 -45 -36 -22 -16 -47 -36 -55
-45 -18 -21 -214 -116 -255 -125 -47 -10 -102 -33 -144 -59 -29 -18 -41 -22
-50 -13 -8 8 -2 21 26 51 38 41 38 41 4 11 -19 -17 -41 -35 -48 -42 -11 -10
-22 -7 -56 11 -38 22 -42 28 -43 65 l0 41 40 1 c23 1 46 0 51 -1 78 -19 76
-19 141 17 35 19 64 41 64 48 0 24 14 24 63 0 66 -31 103 -22 161 41 61 66 83
111 67 137 -8 11 -8 16 -2 12 6 -3 11 -2 11 3 0 6 -7 12 -15 15 -23 9 -47 75
-35 97 6 10 9 36 8 57 l-1 38 -4 -35 c-7 -61 -20 -54 -47 26 -14 43 -24 79
-22 81 9 9 37 -12 48 -38 7 -16 16 -29 20 -29 12 0 -12 54 -30 69 -15 11 -10
12 32 6 64 -9 76 -14 76 -34 0 -14 -2 -14 -10 -1 -5 8 -10 12 -12 10 -13 -18
-28 -66 -28 -91 0 -34 23 -93 40 -104 6 -4 4 8 -6 26 -19 38 -23 114 -5 132 6
6 11 7 11 2 0 -6 9 -21 20 -35 l20 -25 -9 27 c-6 14 -8 37 -6 50 2 13 6 41 10
62 7 47 42 109 57 100 7 -4 8 -2 4 4 -14 23 -27 11 -53 -45 -15 -32 -30 -60
-34 -63 -13 -9 -99 1 -93 11 3 5 16 9 30 9 14 0 22 4 19 10 -3 6 -15 10 -25
10 -21 0 -89 55 -80 64 3 3 29 -1 58 -8 29 -8 50 -10 47 -5 -9 14 -148 116
-196 143 l-44 26 33 12 c21 8 31 17 27 27 -4 11 2 12 27 7 30 -5 28 -3 -17 23
-71 40 -159 141 -137 155 5 3 32 6 61 7 28 2 54 6 57 11 3 5 14 6 25 3 10 -4
19 -2 19 4 0 6 -11 13 -25 17 -28 7 -24 24 6 24 20 0 20 0 1 28 -10 15 -26 44
-36 64 -9 21 -26 44 -39 53 -21 15 -21 15 15 15 50 0 98 11 98 22 0 5 -10 6
-22 2 -13 -4 -49 -7 -82 -7 l-58 2 25 -27 c14 -15 39 -53 57 -84 31 -57 30
-64 -8 -59 -6 1 -19 -2 -28 -7 -14 -8 -12 -10 12 -16 21 -6 25 -9 14 -16 -26
-16 -120 53 -150 109 -11 21 -14 22 -21 8 -5 -8 -11 -42 -13 -74 -3 -32 -5
-59 -5 -61 -1 -1 -14 4 -31 13 -16 9 -30 12 -30 7 0 -7 62 -42 74 -42 3 0 3
17 2 38 -1 20 1 51 4 67 l5 30 56 -57 c53 -56 54 -58 28 -58 -42 0 -42 -13 -4
-70 19 -28 29 -49 22 -46 -6 3 -20 9 -29 12 -9 3 -24 22 -33 42 -10 23 -14 28
-11 12 3 -14 6 -30 6 -37 0 -6 20 -21 44 -33 57 -27 96 -58 96 -75 0 -7 -11
-20 -25 -29 -14 -9 -25 -21 -25 -26 0 -5 22 -19 49 -30 56 -24 145 -108 101
-95 -14 4 -29 11 -34 16 -6 5 -14 9 -18 9 -9 0 72 -113 85 -118 12 -6 -3 -22
-19 -22 -8 0 -22 17 -31 38 -25 62 -40 73 -133 97 -3 1 -21 8 -40 16 -19 9
-67 28 -107 43 -66 25 -129 63 -120 72 3 4 115 -27 149 -41 15 -6 15 -3 6 29
-12 37 -30 52 -21 17 5 -18 2 -19 -28 -11 -19 5 -54 12 -79 15 -51 7 -101 48
-129 105 -9 19 -31 60 -48 90 -26 46 -100 223 -108 255 -1 6 -7 24 -14 40 -45
116 -50 134 -49 195 1 63 -16 140 -31 140 -4 0 -5 -15 -3 -32 3 -18 1 -30 -3
-26 -3 3 -6 9 -6 12 1 4 -5 20 -14 36 -8 16 -15 33 -14 37 4 22 -4 36 -42 73
l-41 40 41 0 c33 0 43 -5 61 -30 19 -26 20 -31 5 -36 -14 -6 -14 -8 2 -20 10
-7 25 -14 34 -14 20 0 76 -61 90 -98 23 -58 30 -173 16 -280 -9 -73 12 -65 35
13 13 45 16 84 13 163 -3 92 -2 102 11 91 22 -18 44 -64 44 -91 1 -21 1 -21
11 -5 6 10 9 41 7 68 -3 27 -2 49 2 49 3 0 31 -22 61 -49 71 -63 143 -170 185
-274 19 -45 34 -75 33 -67 0 8 -13 48 -29 89 -16 41 -27 78 -24 83 12 19 76
38 94 28 17 -9 19 -4 25 53 3 34 7 72 8 85 2 28 14 29 22 1 10 -30 74 -99 92
-99 8 0 -3 15 -25 33 -54 42 -60 58 -20 46 17 -4 41 -15 53 -23 28 -19 29 -2
2 35 -12 16 -16 18 -13 7 6 -22 4 -22 -39 -4 -18 8 -36 12 -38 9 -3 -2 -8 10
-12 27 -10 44 -27 22 -34 -42 -2 -14 -86 3 -99 20 -7 9 -20 26 -28 37 -8 11
-6 3 5 -17 19 -36 19 -38 2 -38 -10 0 -26 -9 -36 -20 -19 -21 -40 -26 -50 -10
-3 5 7 16 22 25 l28 16 -41 -5 c-34 -5 -46 -1 -73 22 -18 15 -67 45 -109 67
-43 22 -104 60 -137 84 -33 24 -61 45 -62 45 -1 1 3 23 9 50 l10 50 19 -39
c10 -21 26 -47 36 -57z m1289 -12 c17 -6 46 -138 45 -211 0 -19 -12 -68 -21
-85 -5 -10 -6 -20 -3 -24 3 -3 -2 -6 -12 -6 -14 0 -15 3 -5 15 7 8 8 15 3 15
-5 0 -17 6 -27 13 -15 11 -17 17 -7 35 10 18 9 21 -4 16 -19 -8 -19 -1 0 36
15 30 15 30 -10 30 -15 0 -35 -5 -46 -11 -19 -9 -19 -9 -10 10 6 11 16 23 21
26 6 3 10 11 10 17 0 11 -20 -9 -55 -56 -27 -35 -49 -43 -39 -14 6 20 5 21 -9
10 -16 -14 -33 0 -22 17 3 5 1 12 -4 15 -5 4 -23 -11 -40 -31 -21 -26 -31 -32
-31 -21 0 30 50 125 85 161 43 44 122 63 181 43z m61 -84 c6 -23 7 -45 3 -47
-4 -3 -11 17 -14 43 -4 26 -9 56 -12 67 l-4 20 9 -20 c5 -11 13 -39 18 -63z
m-332 -14 c-12 -45 -48 -108 -61 -108 -7 0 -18 9 -25 21 -9 18 -5 26 37 65 26
24 49 44 51 44 2 0 2 -10 -2 -22z m865 -78 c0 -6 -8 -14 -17 -17 -10 -4 -21
-11 -25 -17 -5 -8 -10 -8 -18 0 -9 9 -5 13 14 18 14 3 26 11 26 16 0 6 5 10
10 10 6 0 10 -5 10 -10z m-644 -24 c-3 -13 -8 -30 -11 -38 -3 -8 3 -25 15 -38
11 -13 20 -28 20 -35 0 -7 9 -20 20 -30 30 -27 25 -32 -29 -30 -35 2 -58 10
-84 29 -25 19 -37 24 -43 15 -4 -7 -3 -9 3 -6 11 7 73 -56 73 -73 0 -11 -64
-2 -107 16 -38 15 -41 11 -13 -18 25 -27 21 -31 -19 -17 -17 6 -38 9 -45 6
-18 -7 -26 12 -15 38 4 11 8 43 8 71 1 41 7 59 30 87 27 35 46 41 34 11 -6
-17 9 -18 26 -1 11 10 11 8 2 -10 -14 -28 -7 -29 27 -5 22 15 95 49 111 51 2
1 0 -10 -3 -23z m831 -80 c4 -3 1 -6 -5 -6 -7 0 -12 -8 -12 -18 0 -11 -8 -26
-19 -36 -22 -20 -52 -11 -94 28 -15 14 -36 27 -45 27 -9 1 1 5 23 8 48 7 144
5 152 -3z m-1119 -56 c19 -55 20 -61 5 -67 -11 -4 -25 5 -44 28 -28 33 -38 56
-20 45 5 -3 11 8 15 24 3 17 9 30 14 30 4 0 18 -27 30 -60z m-458 16 c0 -3 -4
-8 -10 -11 -5 -3 -10 -1 -10 4 0 6 5 11 10 11 6 0 10 -2 10 -4z m720 -113 c0
-5 -20 -9 -45 -11 -26 -2 -45 2 -45 8 0 5 20 10 45 10 25 0 45 -3 45 -7z
m1396 -31 c14 -9 28 -52 17 -51 -15 1 -56 59 -41 59 7 0 18 -4 24 -8z m219
-35 c-11 -36 -22 -41 -49 -23 -14 9 -33 16 -42 16 -23 0 -13 9 16 15 12 2 24
6 26 7 1 2 15 5 29 6 23 2 25 -1 20 -21z m-440 -51 c-27 -206 -27 -212 1 -225
22 -10 24 -9 24 19 0 53 66 128 119 137 8 1 26 4 39 8 19 5 23 3 18 -12 -3
-10 -8 -31 -12 -48 -11 -47 -42 -103 -75 -134 -30 -29 -30 -30 -9 -41 23 -13
33 -8 36 16 5 32 15 46 28 41 10 -4 16 2 18 16 3 19 6 17 28 -18 14 -22 26
-53 27 -70 1 -16 0 -24 -3 -17 -7 14 -34 17 -34 3 0 -18 24 -25 82 -26 63 -1
79 -9 57 -29 -25 -24 -65 -27 -90 -7 -16 12 -31 16 -44 11 -19 -6 -18 -8 5
-21 14 -7 27 -14 30 -14 3 -1 21 -11 40 -23 19 -12 39 -22 44 -22 5 0 3 -6 -3
-14 -9 -10 -9 -16 -1 -21 14 -9 37 11 56 47 8 15 28 35 44 43 l29 15 -3 -51
c-4 -57 -35 -99 -74 -102 -31 -2 -28 -27 3 -27 24 0 75 -42 75 -61 0 -8 -40
-24 -52 -21 -12 3 -9 -16 2 -20 6 -2 1 -14 -10 -26 -16 -16 -28 -21 -43 -16
-19 6 -20 5 -8 -9 7 -9 28 -26 47 -38 26 -16 33 -26 29 -42 -3 -12 -7 -35 -9
-51 -3 -16 -12 -36 -21 -46 -22 -24 -19 -34 18 -52 17 -9 40 -29 49 -46 18
-30 18 -30 -8 -36 -13 -4 -29 -4 -34 -1 -6 4 -10 1 -10 -4 0 -6 11 -11 24 -11
14 0 44 -10 68 -23 46 -25 47 -29 7 -85 -15 -21 -22 -23 -127 -21 l-110 2 8
23 c5 13 21 46 35 75 17 32 24 60 21 75 -6 24 -53 63 -85 69 -10 2 -33 11 -50
20 -44 22 -110 26 -148 8 -18 -8 -33 -20 -33 -26 0 -6 -8 -4 -17 6 -16 16 -14
19 30 63 26 25 47 42 47 37 0 -4 4 -2 9 6 7 11 14 10 36 -5 l28 -18 -7 28 c-6
23 -4 27 8 23 12 -5 14 1 12 26 -2 18 -6 39 -10 48 -8 17 17 29 62 29 13 0 37
7 53 16 l31 15 -38 20 c-52 26 -87 24 -125 -8 l-33 -28 8 25 c11 37 8 72 -9
89 -11 12 -18 12 -26 4 -9 -9 -19 -8 -42 4 -20 10 -45 14 -73 10 -65 -7 -70 5
-17 43 27 18 56 41 65 51 17 17 16 17 -20 12 -64 -10 -82 -21 -101 -63 -16
-35 -20 -38 -31 -25 -11 14 -7 19 13 16 4 0 6 2 5 6 -2 6 13 39 34 75 4 7 -24
48 -32 48 -24 0 -44 -77 -26 -99 9 -11 7 -13 -12 -7 -36 12 -84 -2 -78 -22 5
-14 -1 -17 -27 -16 -27 1 -33 -3 -37 -25 -3 -14 0 -32 6 -38 10 -10 9 -20 -3
-44 -17 -35 -20 -34 -27 5 -3 15 -10 34 -17 42 -9 11 -7 14 10 14 18 0 21 4
16 30 -3 19 2 43 15 67 11 21 20 41 20 44 0 4 -17 11 -37 16 -26 6 -38 14 -38
27 0 9 -8 22 -17 27 -16 9 -16 11 0 39 19 34 33 40 25 11 -3 -13 2 -20 20 -25
31 -7 56 1 81 26 10 11 26 18 37 15 13 -4 19 0 19 12 0 12 -8 17 -27 16 -42
-1 -134 30 -145 48 -8 16 8 57 23 57 20 0 77 -32 99 -55 40 -43 57 -48 80 -25
11 11 32 20 46 20 21 0 24 -4 19 -20 -6 -18 -5 -19 21 -5 39 20 55 4 49 -46
-4 -31 -2 -39 11 -39 20 0 42 22 37 37 -2 6 4 13 14 15 16 3 15 6 -7 20 -14 9
-32 18 -40 20 -8 2 -17 6 -20 10 -3 4 -16 9 -28 11 -12 2 -25 6 -28 10 -4 4
-20 7 -35 7 -39 0 -68 28 -84 81 l-13 47 26 5 c35 7 88 -45 97 -95 5 -24 14
-38 26 -41 23 -6 24 1 4 23 -31 34 -20 106 25 156 16 19 30 42 30 52 0 14 2
14 9 3 5 -8 8 -23 6 -35z m315 24 c0 -5 -4 -10 -9 -10 -6 0 -13 5 -16 10 -3 6
1 10 9 10 9 0 16 -4 16 -10z m-81 -65 c-5 -16 -9 -32 -9 -34 0 -3 -6 3 -13 13
-7 9 -19 16 -27 14 -9 -2 -14 3 -12 11 2 9 -3 11 -15 6 -10 -4 -26 -8 -36 -10
-14 -3 -15 -1 -7 16 6 10 21 19 33 19 12 1 36 7 52 14 26 11 31 11 36 -3 3 -9
2 -29 -2 -46z m30 36 c8 -14 7 -22 -4 -31 -11 -9 -14 -6 -13 19 1 36 4 38 17
12z m237 -3 c-3 -13 -5 -28 -5 -34 -1 -15 -39 -25 -47 -13 -3 5 2 12 11 15 12
5 13 10 4 20 -14 17 -3 34 22 34 14 0 18 -5 15 -22z m8 -210 c-3 -4 -14 -8
-24 -8 -10 0 -22 -4 -25 -10 -14 -23 -26 -9 -20 23 11 47 13 49 45 25 16 -12
27 -25 24 -30z m306 -40 c0 -10 -36 7 -45 22 -4 6 5 5 19 -2 14 -6 26 -15 26
-20z m10 -72 c0 -3 -4 -8 -10 -11 -5 -3 -10 -1 -10 4 0 6 5 11 10 11 6 0 10
-2 10 -4z m-3580 -71 c7 -9 11 -17 8 -20 -2 -2 -12 4 -21 15 -9 11 -13 20 -8
20 5 0 14 -7 21 -15z m162 -179 c31 -23 102 -72 158 -111 56 -38 105 -77 110
-85 7 -13 36 -116 44 -155 1 -5 10 -36 20 -69 9 -32 28 -101 41 -154 14 -52
27 -97 29 -100 10 -10 -15 -42 -27 -35 -7 4 -17 8 -24 9 -18 3 -181 138 -176
146 2 4 15 3 30 -3 14 -5 28 -8 30 -5 3 3 -6 44 -20 93 -13 48 -25 102 -26
118 -2 49 -9 97 -16 103 -12 13 7 -150 26 -215 10 -38 19 -71 19 -75 0 -3 -26
0 -57 7 -32 7 -71 16 -88 18 -16 3 -50 10 -75 16 -37 8 -215 40 -322 57 -69
10 -94 15 -108 19 -8 2 -37 7 -65 10 -27 3 -75 9 -105 14 -82 13 -297 14 -360
1 -72 -15 -107 -28 -155 -60 -67 -44 -70 -44 -73 11 -5 110 77 233 191 288 34
17 103 40 152 52 161 37 188 41 365 44 139 2 241 -3 395 -19 53 -6 79 -22 225
-135 17 -13 34 -21 37 -17 4 3 4 7 2 9 -96 71 -210 146 -231 151 -18 4 -35 21
-52 52 -29 52 -34 79 -12 71 11 -4 13 -1 8 11 -7 19 7 12 110 -62z m544 -2
c28 -21 60 -45 70 -52 17 -11 16 -11 -4 -2 -38 18 -106 67 -127 91 -22 25 -17
23 61 -37z m1938 9 c4 -16 -2 -20 -30 -21 -41 -2 -43 8 -7 30 31 19 32 18 37
-9z m-2621 -22 c20 -34 11 -40 -43 -31 -31 5 -33 7 -13 14 13 4 22 10 22 14
-6 39 11 41 34 3z m561 -76 c19 -34 21 -42 7 -25 -26 33 -68 110 -49 90 8 -8
27 -37 42 -65z m2156 45 c0 -5 -5 -10 -11 -10 -5 0 -7 5 -4 10 3 6 8 10 11 10
2 0 4 -4 4 -10z m553 -50 c-5 -40 -8 -49 -14 -35 -12 30 -10 70 3 83 17 17 18
12 11 -48z m-4033 15 c0 -7 -17 -19 -37 -26 -92 -29 -196 -108 -230 -172 -8
-16 -17 -27 -19 -24 -11 11 -13 52 -2 58 8 5 8 15 -2 39 -11 26 -11 34 2 46
23 23 155 66 189 60 16 -2 27 -1 24 4 -6 10 14 27 40 32 25 6 35 1 35 -17z
m3519 -10 c-14 -14 -28 -19 -33 -14 -6 5 -25 9 -42 9 -36 0 -55 16 -27 22 10
2 42 4 72 4 l53 2 -23 -23z m-1818 -13 c11 -30 -8 -25 -30 7 -14 22 -14 23 3
20 10 -2 23 -14 27 -27z m1679 18 c-19 -13 -30 -13 -30 0 0 6 10 10 23 10 18
0 19 -2 7 -10z m-1770 -67 c-1 -10 -7 -31 -15 -48 -14 -30 -14 -30 -9 16 4 28
1 56 -6 70 l-12 24 21 -22 c11 -12 21 -30 21 -40z m1939 18 c9 -6 10 -11 2
-15 -6 -4 -15 -5 -20 -1 -5 3 -12 1 -15 -4 -4 -5 -2 -13 4 -16 8 -5 7 -11 -1
-21 -17 -21 -39 -17 -39 7 0 48 34 72 69 50z m-1464 -40 c3 -5 1 -12 -5 -16
-5 -3 -10 1 -10 9 0 18 6 21 15 7z m1141 -5 c27 -19 27 -68 -1 -72 -10 -2 -25
2 -32 8 -11 9 -10 13 4 24 17 13 17 15 1 25 -10 5 -18 14 -18 19 0 14 23 12
46 -4z m-3553 -66 c23 -55 24 -62 11 -89 -11 -23 -12 -35 -3 -57 7 -16 13 -45
15 -64 5 -52 13 -80 24 -80 5 0 27 18 49 39 22 22 64 48 95 60 65 24 176 36
177 18 0 -9 2 -8 6 1 2 6 17 12 33 12 21 0 30 -7 38 -27 18 -46 186 -557 189
-575 4 -22 -106 -81 -127 -68 -7 4 -25 6 -39 4 -14 -2 -63 -7 -108 -10 -93 -8
-81 -18 -124 104 -12 34 -24 61 -26 59 -2 -2 10 -41 26 -85 16 -45 26 -83 23
-83 -4 -1 -11 -2 -17 -4 -5 -1 -16 -3 -23 -3 -10 -2 -12 -12 -8 -34 5 -24 4
-28 -3 -13 -24 55 -331 897 -331 909 0 6 77 45 91 46 3 0 17 -27 32 -60z
m1737 -10 c0 -19 -4 -42 -10 -50 -6 -10 -8 1 -7 35 1 28 -2 59 -7 70 l-9 20
16 -20 c9 -11 16 -36 17 -55z m110 9 c17 -30 6 -34 -14 -4 -9 14 -12 25 -7 25
6 0 15 -9 21 -21z m1951 -8 c-6 -10 -7 -21 -4 -25 3 -3 1 -6 -7 -6 -10 0 -10
-3 0 -15 13 -16 10 -18 -13 -9 -13 5 -13 10 5 40 21 35 36 48 19 15z m-1201
-72 c21 -38 5 -53 -25 -23 -9 9 -14 23 -11 31 3 7 -1 16 -9 19 -8 4 -15 10
-15 15 0 14 49 -21 60 -42z m-618 -16 c-23 -73 -33 -94 -25 -53 3 19 7 42 8
50 3 30 17 60 25 55 4 -2 1 -26 -8 -52z m1583 37 c-3 -5 -11 -10 -16 -10 -6 0
-7 5 -4 10 3 6 11 10 16 10 6 0 7 -4 4 -10z m807 -32 c-13 -13 -24 5 -16 27 7
16 8 16 17 0 6 -11 6 -20 -1 -27z m-2173 -30 c28 -61 28 -64 12 -93 -22 -42
-114 -125 -137 -125 -10 0 -43 12 -72 27 l-53 28 5 46 c6 51 15 79 25 79 8 -1
38 -42 57 -78 8 -15 14 -20 14 -13 0 8 -12 32 -26 52 l-26 38 22 32 c30 41 77
69 118 69 30 0 34 -4 61 -62z m-2167 2 c-4 -29 -6 -31 -12 -15 -4 11 -3 28 2
38 13 26 17 18 10 -23z m3768 10 c-24 -16 -31 -11 -19 11 8 16 14 18 22 10 9
-9 8 -14 -3 -21z m-1990 9 c0 -6 -4 -18 -10 -28 -5 -10 -11 -30 -14 -46 -3
-15 -8 -30 -12 -34 -6 -5 -1 28 11 89 2 8 4 18 4 23 1 11 21 8 21 -4z m2278
-24 c8 -3 11 -13 7 -24 -3 -12 0 -21 10 -25 14 -5 14 -9 -2 -38 -9 -18 -16
-36 -15 -40 1 -5 -2 -8 -8 -8 -5 0 -9 -3 -8 -7 1 -5 -6 -24 -15 -44 l-17 -35
-68 2 c-37 1 -72 2 -79 3 -16 1 98 219 117 224 16 4 56 0 78 -8z m20 -140
c-22 -41 -45 -75 -51 -75 -8 0 -8 3 -2 8 6 4 26 40 44 81 30 66 32 75 17 83
-9 5 -14 14 -10 20 4 5 14 -1 24 -16 17 -26 16 -28 -22 -101z m-4167 50 l19
-49 -23 -26 c-12 -14 -35 -37 -52 -52 l-30 -27 -32 31 c-18 18 -33 38 -33 45
0 16 111 132 124 129 4 -1 17 -24 27 -51z m661 34 c-3 -11 -1 -12 9 -1 7 6 18
12 23 12 6 0 -10 -20 -34 -45 -32 -33 -45 -54 -45 -74 0 -16 3 -27 8 -24 4 2
7 0 7 -6 0 -5 -4 -12 -8 -15 -12 -7 -13 -74 -2 -81 13 -8 24 14 30 66 5 40 4
46 -9 41 -14 -5 -14 -3 0 14 9 10 19 28 23 38 3 10 9 16 13 13 3 -4 24 9 45
29 22 20 42 33 46 30 3 -4 -3 -13 -14 -20 -53 -38 -74 -64 -82 -104 -12 -51
-4 -58 28 -25 29 30 126 105 158 122 25 13 66 6 56 -10 -3 -6 3 -5 14 2 26 16
40 5 22 -16 -14 -17 -3 -30 53 -60 34 -19 34 -12 2 27 -33 39 -32 52 3 44 15
-4 34 -8 43 -10 9 -1 28 -12 43 -23 15 -12 41 -25 58 -28 23 -5 27 -9 17 -16
-10 -6 -11 -9 -1 -9 7 0 21 6 32 12 16 10 22 10 32 -1 11 -11 9 -12 -12 -7
-21 6 -22 5 -7 -4 24 -16 21 -31 -5 -26 -59 12 -102 17 -96 11 3 -3 27 -9 54
-13 26 -4 49 -13 52 -21 3 -9 0 -11 -8 -6 -17 10 -71 15 -65 5 2 -4 18 -13 35
-20 18 -8 30 -20 30 -31 0 -28 -11 -24 -80 26 -34 26 -78 53 -98 63 -20 9 -50
25 -66 36 -41 27 -51 7 -47 -92 2 -41 1 -42 -20 -32 -29 16 -101 14 -135 -3
-16 -8 -40 -27 -54 -41 l-24 -27 24 -22 c63 -57 120 -72 185 -47 25 10 26 9
25 -22 -3 -56 0 -92 9 -107 8 -13 12 -13 26 -1 9 7 42 27 73 44 32 17 87 50
122 74 35 23 68 41 74 39 24 -8 14 -27 -23 -46 -22 -12 -42 -24 -44 -29 -9
-14 72 -7 85 8 11 12 11 12 -5 1 -9 -8 -21 -11 -25 -7 -4 4 2 14 12 22 20 14
45 20 33 8 -3 -4 -2 -15 4 -25 7 -15 4 -26 -13 -49 -21 -29 -48 -40 -48 -20 0
6 -10 10 -22 9 -22 0 -22 -1 -3 -8 16 -7 13 -9 -18 -15 -23 -4 -50 -20 -72
-43 -36 -37 -43 -37 -25 -2 6 10 8 19 6 19 -3 0 -12 -13 -20 -29 -12 -23 -27
-32 -68 -42 -71 -17 -80 -17 -103 3 -11 10 -47 38 -81 63 -87 63 -141 125
-154 177 -6 23 -14 50 -17 58 -3 8 -5 21 -4 27 1 7 -5 23 -13 35 -24 39 -29
84 -10 102 9 9 13 20 9 24 -3 4 -13 -2 -21 -12 -10 -15 -14 -16 -18 -5 -14 45
-35 106 -41 122 -7 16 -2 18 66 14 57 -3 73 -7 71 -18z m1118 -82 c23 3 30 0
30 -12 0 -22 -18 -54 -50 -88 -23 -25 -30 -28 -48 -18 -19 10 -36 52 -48 118
-4 22 -3 22 41 8 25 -7 59 -11 75 -8z m133 -10 c23 -1 52 2 65 6 21 8 22 7 16
-20 -9 -37 -18 -48 -78 -88 -49 -32 -51 -33 -85 -19 -45 19 -45 18 -28 46 8
12 18 40 21 61 6 33 9 36 27 27 11 -6 39 -12 62 -13z m-572 -3 c53 -14 77 -28
158 -96 53 -45 104 -86 113 -92 10 -6 18 -17 18 -25 0 -8 15 -32 33 -55 19
-23 40 -52 47 -66 12 -22 10 -26 -24 -56 -36 -31 -160 -109 -278 -173 -40 -22
-58 -28 -60 -19 -2 24 -5 33 -16 59 -15 38 -13 91 5 85 20 -8 16 17 -10 55
-23 35 -56 101 -83 168 -14 36 -14 86 0 151 3 14 8 37 12 53 7 32 5 32 85 11z
m-1258 -165 c32 -86 57 -159 57 -163 0 -16 -50 28 -103 91 -32 38 -69 80 -83
95 l-26 27 48 55 c26 31 48 55 49 53 1 -1 27 -72 58 -158z m4603 -51 c37 -22
38 -22 13 -29 -21 -6 -19 -7 11 -8 32 -1 124 -49 173 -90 31 -25 21 -58 -25
-85 -274 -156 -456 -256 -470 -256 -18 0 -23 11 -11 24 4 3 8 13 9 21 7 45
132 265 205 361 22 28 39 58 39 67 0 22 12 21 56 -5z m-2862 -313 c63 -129
102 -233 122 -329 17 -83 13 -104 -21 -101 -13 2 -29 -3 -35 -10 -17 -20 -90
3 -91 30 0 11 -4 29 -9 40 -7 14 -8 9 -4 -17 7 -42 6 -43 -50 -27 -45 13 -72
19 -106 26 -52 10 -55 12 -37 30 16 16 18 16 32 -2 16 -19 16 -19 6 1 -8 16
-7 25 2 32 39 33 160 50 223 33 21 -6 40 -9 42 -7 2 3 -6 25 -17 51 -28 64
-132 165 -205 199 -86 41 -123 43 -169 12 -41 -28 -120 -66 -136 -66 -15 0
-14 15 2 27 15 13 107 44 107 37 0 -3 7 2 16 10 8 9 22 16 29 16 8 0 16 4 20
9 6 10 -45 -1 -66 -15 -8 -4 -9 -3 -5 5 4 6 22 19 41 29 66 34 161 92 190 116
l30 25 17 -22 c10 -12 42 -71 72 -132z m-1632 68 c8 -27 27 -79 42 -118 14
-38 20 -63 13 -53 -17 21 -77 29 -77 9 0 -4 11 -6 25 -3 18 3 33 -3 50 -20 27
-27 79 -172 72 -199 -4 -13 0 -16 12 -12 9 4 13 2 8 -2 -4 -5 -1 -18 6 -29 11
-17 49 -116 52 -136 0 -3 7 -16 14 -29 11 -21 17 -22 58 -16 30 4 43 3 39 -4
-7 -11 94 -90 116 -92 7 0 28 -18 46 -39 l33 -38 -18 -36 c-10 -19 -22 -36
-27 -36 -5 0 -25 17 -45 39 -20 21 -136 142 -257 267 -394 407 -374 384 -359
415 8 14 25 33 38 42 22 14 27 14 46 1 24 -17 29 -3 6 16 -9 7 -14 17 -13 21
6 17 83 98 94 99 5 0 17 -21 26 -47z m586 -32 c13 -7 38 -11 55 -9 18 2 33 -1
34 -7 2 -6 -15 -9 -37 -9 -42 2 -120 44 -120 66 0 6 10 2 23 -9 12 -11 32 -26
45 -32z m503 14 c16 -9 27 -20 24 -25 -3 -4 1 -11 7 -14 7 -4 3 -4 -9 -2 -13
2 -23 0 -23 -5 0 -5 9 -9 20 -9 11 0 20 -5 20 -11 0 -6 -9 -8 -21 -4 -12 4
-28 8 -35 9 -21 3 -29 16 -10 16 9 0 14 5 11 10 -4 6 -11 7 -17 4 -15 -10 -29
18 -16 33 13 16 13 16 49 -2z m-88 -6 c2 -2 21 -35 42 -74 21 -38 45 -80 53
-92 8 -13 10 -23 5 -23 -6 0 -18 16 -29 35 -16 30 -21 33 -30 20 -6 -8 -33
-23 -59 -31 -47 -17 -47 -17 -71 10 -14 14 -34 27 -44 27 -11 1 -23 2 -27 4
-5 1 -20 5 -35 9 -14 4 -38 21 -52 36 l-25 29 52 16 c29 9 58 19 65 21 8 4 10
0 5 -11 -5 -15 -3 -16 14 -7 11 6 25 18 32 26 11 13 94 18 104 5z m-419 -48
c16 -6 14 -10 -15 -32 -41 -31 -170 -109 -180 -109 -9 0 -43 -81 -41 -100 1
-8 4 -32 7 -52 7 -43 2 -45 -49 -24 -27 11 -36 23 -50 64 -16 50 -16 52 6 99
27 57 36 65 66 60 15 -3 21 0 20 10 -2 9 30 27 92 53 99 40 113 43 144 31z
m147 -41 l24 -20 -71 -67 c-40 -38 -87 -77 -105 -88 -40 -24 -72 -97 -58 -132
7 -19 4 -24 -16 -29 -41 -10 -92 4 -109 31 -9 13 -18 48 -21 77 -7 60 9 101
40 106 40 6 51 12 36 21 -12 8 6 21 80 59 14 8 39 25 54 38 37 31 111 34 146
4z m-396 -12 c-23 -14 -152 -21 -159 -10 -3 5 18 10 47 11 28 1 53 3 54 5 1 1
19 3 40 4 33 2 36 0 18 -10z m-177 -10 c-2 -8 16 -13 52 -16 30 -2 56 -5 58
-7 2 -2 -8 -27 -22 -56 -14 -29 -23 -56 -21 -59 2 -4 6 -18 9 -33 3 -15 7 -36
11 -46 5 -17 2 -19 -37 -14 -24 3 -44 7 -46 8 -1 1 -7 27 -13 58 -5 31 -18 81
-28 111 l-18 55 26 4 c14 2 27 5 29 6 1 0 1 -4 0 -11z m676 -39 c14 -11 26
-16 26 -10 0 6 4 11 10 11 10 0 60 -102 60 -123 0 -7 5 -18 12 -25 9 -9 1 -12
-36 -12 -39 0 -47 3 -42 15 16 44 -52 -9 -91 -70 -15 -25 -33 -45 -39 -45 -6
0 -11 -13 -10 -30 0 -16 -3 -30 -9 -32 -5 -1 -28 -7 -50 -13 -23 -7 -49 -9
-61 -5 -29 11 -64 58 -64 85 0 57 42 117 70 100 6 -3 10 -2 10 4 0 5 -6 12
-12 15 -13 5 -12 7 86 90 42 35 86 62 107 65 4 1 18 -8 33 -20z m290 0 c-4 -8
1 -9 17 -4 21 7 22 6 10 -9 -10 -12 -17 -14 -27 -5 -12 10 -11 29 2 29 3 0 2
-5 -2 -11z m-179 -188 c-3 -5 -18 -12 -33 -16 -42 -9 -56 -25 -81 -92 -13 -36
-29 -63 -37 -63 -8 0 -14 -4 -14 -10 0 -5 -4 -10 -9 -10 -14 0 -17 39 -7 93
13 70 55 104 130 106 33 0 55 -3 51 -8z m3315 -22 c0 -6 -10 -25 -22 -42 l-22
-31 -7 34 c-4 19 -5 38 -3 42 8 12 54 9 54 -3z m-4002 -14 c1 -8 3 -28 4 -45
1 -16 5 -30 10 -30 4 0 8 -5 8 -11 0 -5 -4 -8 -9 -4 -5 3 -13 0 -17 -6 -4 -8
-3 -9 4 -5 7 4 12 2 12 -3 0 -6 6 -11 14 -11 22 0 30 -49 11 -70 -22 -24 -47
-19 -63 13 -16 33 -62 159 -62 170 0 5 16 7 35 4 19 -3 38 -1 41 4 7 13 10 11
12 -6z m4078 -12 c-4 -16 -17 -35 -29 -43 -12 -8 -29 -23 -39 -32 -10 -10 -25
-14 -38 -11 l-20 5 23 32 c13 17 27 39 30 50 7 17 9 16 33 -10 23 -24 26 -25
20 -6 -8 24 -1 42 16 42 6 0 8 -11 4 -27z m48 -54 c-15 -29 -16 -30 -29 -12
-12 16 -11 19 6 25 10 4 19 12 19 18 0 6 4 8 10 5 6 -4 4 -17 -6 -36z m-169
-51 c7 -7 3 -8 -14 -3 -13 4 -29 8 -35 9 -17 3 -36 16 -36 27 0 10 69 -16 85
-33z m200 12 c-3 -5 -12 -10 -18 -10 -7 0 -6 4 3 10 19 12 23 12 15 0z m-2655
-22 c0 -6 -10 -8 -22 -4 -13 3 -27 6 -31 6 -5 0 -6 4 -3 9 7 11 56 2 56 -11z
m-1189 -45 c23 -53 34 -112 18 -96 -10 10 -50 143 -43 143 3 0 14 -21 25 -47z
m-147 20 c4 -9 9 -32 12 -52 5 -36 5 -36 -11 -13 -10 13 -15 26 -12 29 3 3 2
16 -3 29 -5 13 -6 24 -1 24 5 0 12 -7 15 -17z m3888 -173 c16 -49 13 -61 -9
-39 -6 6 -17 9 -25 7 -7 -3 3 -12 24 -22 31 -15 39 -26 53 -74 9 -31 21 -66
26 -77 24 -56 27 -71 14 -95 -14 -26 -14 -25 -157 -34 -54 -3 -103 -7 -110 -8
-7 -2 -14 9 -16 23 -3 22 -15 33 -63 57 -71 36 -54 58 22 27 13 -5 27 12 62
72 42 73 145 212 158 213 3 0 12 -22 21 -50z m-3798 -8 c32 -16 35 -20 22 -31
-12 -10 -20 -7 -47 18 -36 35 -29 39 25 13z m500 -49 c-11 -33 -11 -40 3 -50
13 -10 13 -15 -7 -44 -13 -17 -26 -45 -29 -62 -11 -51 -27 -41 -29 19 -2 47 3
65 30 115 37 67 52 77 32 22z m-414 12 c0 -8 -9 -20 -20 -27 -34 -21 -74 -87
-76 -126 -2 -21 -5 -47 -8 -58 -7 -33 38 -119 85 -164 23 -22 74 -55 113 -74
39 -19 87 -46 106 -61 l35 -27 -35 7 c-65 12 -160 64 -215 116 -127 120 -151
289 -55 390 38 40 70 51 70 24z m-10 -55 c0 -5 -5 -10 -11 -10 -5 0 -7 5 -4
10 3 6 8 10 11 10 2 0 4 -4 4 -10z m-38 -64 c-20 -19 -39 -32 -42 -30 -6 7 63
71 72 67 4 -2 -10 -19 -30 -37z m533 4 c3 -4 -12 -24 -32 -44 -21 -20 -32 -36
-26 -36 7 0 23 11 37 25 29 29 39 31 56 10 7 -8 17 -15 22 -15 6 0 5 6 -2 15
-10 12 -6 11 21 -2 45 -21 50 -27 17 -19 -16 3 -28 2 -28 -3 0 -12 48 -24 62
-15 5 4 13 3 17 -2 3 -5 20 -16 36 -23 24 -12 26 -15 12 -19 -10 -2 -24 2 -32
8 -18 15 -20 4 -3 -14 9 -10 20 -11 37 -5 18 7 31 4 55 -11 17 -11 25 -20 17
-20 -7 0 -11 -6 -8 -14 3 -8 -1 -22 -8 -33 -13 -17 -14 -17 -29 2 -10 14 -11
24 -4 32 7 9 7 13 -1 13 -6 0 -13 -11 -17 -24 -3 -14 -12 -27 -20 -30 -10 -4
-12 -14 -8 -32 5 -18 3 -25 -4 -20 -6 4 -16 -3 -22 -14 -6 -11 -17 -20 -25
-20 -15 0 -61 68 -51 77 3 3 10 -5 15 -19 5 -13 16 -29 24 -36 12 -11 17 -8
26 19 16 46 16 46 -36 41 -80 -7 -106 -4 -117 15 -5 10 -21 30 -36 44 -24 25
-40 76 -19 63 6 -3 8 -13 5 -21 -3 -8 -2 -12 2 -9 4 2 21 -15 37 -39 24 -35
36 -45 59 -45 22 0 27 4 22 16 -3 9 -6 19 -6 24 0 5 -12 10 -27 12 -20 2 -27
8 -25 20 1 9 -2 19 -8 23 -6 3 -7 0 -4 -9 9 -23 -6 -20 -28 6 -29 34 -34 67
-12 84 18 14 18 14 -1 7 -17 -6 -18 -5 -5 9 8 9 19 13 24 10 5 -3 7 1 4 9 -6
16 28 24 37 9z m-510 -27 c-4 -10 -8 -24 -8 -30 0 -16 -10 -16 -25 -1 -9 9 -8
16 5 30 21 23 37 23 28 1z m-41 -69 c3 -8 3 -27 -1 -42 -6 -24 -7 -25 -14 -7
-11 28 -11 65 0 65 5 0 12 -7 15 -16z m84 -117 c60 -31 154 -63 209 -71 7 -1
15 -5 19 -9 4 -3 -4 -4 -17 -1 -13 2 -61 5 -106 6 -75 1 -86 4 -117 30 -35 28
-88 95 -70 87 5 -2 42 -21 82 -42z m801 -3 c-6 -8 -16 -14 -21 -14 -17 0 -114
-80 -128 -104 -7 -14 -37 -36 -72 -51 -52 -24 -63 -25 -84 -14 -13 7 -24 15
-24 19 0 3 24 14 54 23 64 21 155 79 210 136 32 33 42 38 58 30 15 -8 17 -13
7 -25z m100 -41 c64 -38 87 -63 57 -63 -18 0 -24 -8 -31 -49 -11 -63 -103
-239 -138 -262 -5 -3 -7 -12 -6 -20 3 -20 -12 -50 -22 -43 -5 3 -9 18 -9 34 0
21 12 40 42 70 23 22 39 40 35 40 -4 0 -26 -18 -48 -40 -23 -22 -44 -38 -47
-35 -8 8 50 85 64 85 8 0 14 5 14 10 0 17 -31 -4 -67 -45 -18 -20 -31 -41 -28
-45 3 -5 2 -11 -3 -14 -10 -6 -34 21 -63 67 -10 18 -19 27 -19 21 0 -6 14 -30
30 -52 30 -41 30 -42 8 -43 -13 0 -35 -2 -50 -4 -33 -4 -46 11 -53 61 -2 21
-12 66 -20 98 -17 63 -9 90 19 67 11 -9 14 -8 12 6 0 10 4 18 9 19 6 0 18 4
29 9 18 8 40 -11 30 -27 -3 -4 0 -8 5 -8 6 0 11 6 11 13 0 7 17 33 37 57 26
30 31 39 16 31 -12 -6 -30 -24 -39 -41 -10 -16 -21 -27 -26 -24 -13 8 23 63
62 94 31 24 107 68 120 70 3 0 34 -17 69 -37z m1554 -32 c25 -22 127 -179 127
-194 0 -5 -22 -11 -80 -22 -14 -3 -47 -9 -75 -15 -86 -18 -99 -20 -135 -26
-19 -3 -37 -8 -39 -10 -2 -2 -17 4 -34 13 l-30 15 78 39 c43 22 83 39 89 39
19 1 47 27 50 47 2 10 -1 32 -6 48 -5 17 -11 47 -14 69 -6 36 -5 38 17 31 13
-4 37 -19 52 -34z m-1953 -36 c0 -15 2 -17 9 -6 5 8 11 9 15 3 3 -5 -1 -13 -9
-16 -15 -5 -35 28 -35 57 0 20 20 -17 20 -38z m-136 21 c44 -1 49 -4 53 -25 2
-18 0 -22 -14 -18 -111 34 -152 44 -157 39 -3 -3 -6 0 -6 7 0 8 11 10 38 5 20
-4 59 -8 86 -8z m114 -21 c-9 -9 -30 14 -23 25 6 9 10 8 17 -4 6 -10 8 -19 6
-21z m-268 10 c30 -4 57 -8 60 -7 21 0 182 -66 212 -87 50 -35 51 -55 1 -34
-44 18 -40 9 8 -16 18 -10 36 -27 40 -39 l8 -21 -37 20 c-26 16 -33 17 -23 5
7 -9 19 -16 27 -16 18 0 44 -40 44 -67 0 -24 -14 -31 -25 -13 -3 6 -12 10 -18
10 -7 0 2 -9 18 -20 24 -16 33 -32 43 -77 18 -83 20 -113 8 -120 -6 -3 -8 -3
-4 2 24 26 -62 74 -172 95 -25 5 -56 12 -70 15 -14 3 -82 6 -152 7 -71 0 -128
2 -128 4 0 8 132 95 195 130 39 20 72 39 75 42 9 7 -128 127 -180 157 -76 46
-69 49 70 30z m1118 -199 c12 -4 20 -12 17 -17 -4 -5 10 -16 29 -26 43 -20 59
-47 19 -32 -39 15 -38 4 2 -15 19 -9 42 -30 50 -46 21 -41 19 -44 -12 -15 -48
43 -119 33 -275 -40 -132 -61 -176 -75 -239 -75 -57 0 -139 24 -126 36 4 4 2
15 -4 25 -11 21 1 25 19 7 14 -14 44 -20 36 -7 -3 5 -8 8 -12 5 -4 -2 -16 5
-26 15 -11 11 -18 19 -15 19 39 4 85 14 89 20 6 8 241 104 285 115 17 5 32 9
35 10 3 1 20 6 38 10 18 4 35 11 37 15 5 9 18 8 53 -4z m231 -137 c38 -23 72
-50 74 -61 4 -16 11 -18 29 -12 14 4 4 -8 -25 -30 -27 -21 -52 -35 -55 -32 -3
3 -3 7 -1 9 50 38 60 47 51 47 -6 0 -28 -14 -48 -32 -34 -30 -37 -31 -62 -16
-26 16 -62 100 -54 129 8 32 12 39 17 39 3 0 37 -18 74 -41z m1699 -60 c28
-39 50 -75 47 -79 -3 -4 -22 -11 -42 -15 -21 -5 -42 -9 -48 -11 -72 -18 -300
-72 -301 -71 -1 1 21 34 49 74 29 39 59 81 67 93 8 12 20 29 27 38 9 14 82 36
134 41 9 0 38 -30 67 -70z m-2514 16 c22 -57 76 -94 142 -98 43 -3 108 5 139
17 6 2 20 7 33 11 13 4 55 23 94 42 39 18 79 31 88 28 10 -3 21 -1 25 4 4 7
-1 8 -12 4 -10 -3 -15 -3 -11 1 6 7 14 9 88 21 34 6 34 6 -20 -29 -30 -20 -60
-36 -66 -36 -7 0 -16 -4 -19 -10 -13 -21 92 30 129 63 22 19 26 20 43 9 16
-10 6 -23 -46 -60 -24 -18 -40 -32 -35 -32 12 0 52 27 85 57 23 21 27 22 38 9
7 -8 10 -20 6 -26 -10 -16 -112 -90 -125 -90 -5 0 -10 -5 -10 -11 0 -12 6 -9
83 44 31 22 57 44 57 48 0 5 5 9 10 9 40 0 -30 -80 -107 -122 -106 -58 -403
-157 -521 -173 -61 -9 -219 -9 -272 -1 -105 17 -151 78 -95 130 14 13 25 26
25 30 0 4 -10 -2 -22 -14 -12 -11 -25 -20 -29 -20 -15 0 -1 51 17 65 11 7 17
16 14 19 -4 3 -18 -6 -33 -20 -52 -48 -142 -28 -182 40 -28 47 -30 56 -14 56
5 0 8 -4 4 -9 -3 -5 10 -25 29 -45 24 -26 42 -36 63 -36 35 0 56 19 43 40 -9
15 6 54 18 46 4 -2 9 -19 10 -38 2 -18 8 -37 14 -43 8 -7 9 -3 5 14 -3 13 -1
33 5 44 6 12 6 17 0 13 -5 -3 -12 1 -16 9 -6 18 3 19 39 5 l27 -10 -26 -21
c-15 -12 -25 -24 -22 -27 3 -3 18 7 32 21 19 19 31 24 43 18 24 -13 56 -51 43
-51 -7 0 -12 -4 -12 -9 0 -5 12 -8 28 -5 26 4 25 2 -18 -39 -25 -23 -55 -50
-67 -58 -30 -21 -35 -55 -7 -51 11 1 33 -2 48 -8 16 -6 25 -6 21 0 -3 5 -21
12 -40 16 -57 10 -40 34 20 29 17 -1 20 0 8 2 -27 5 -29 12 -7 28 11 7 32 9
60 5 24 -4 44 -3 44 2 0 4 -19 8 -42 8 l-41 0 23 25 c13 14 31 25 39 25 14 0
14 1 1 10 -8 5 -12 10 -8 10 4 0 3 11 -2 24 -5 15 -5 27 3 35 8 8 8 11 0 11
-6 0 -13 9 -16 21 -5 17 -2 20 14 16 10 -3 22 -1 25 4 3 5 -6 9 -20 9 -46 0
-31 28 17 32 112 8 103 11 121 -37z m-410 -25 c14 0 17 -5 13 -22 -3 -12 -1
-30 5 -41 10 -19 8 -19 -23 -13 -39 7 -59 29 -59 64 0 20 4 23 23 18 12 -3 30
-6 41 -6z m447 -7 c13 -16 12 -17 -3 -4 -10 7 -18 15 -18 17 0 8 8 3 21 -13z
m737 -66 c17 -16 25 -18 34 -9 17 17 33 15 18 -3 -10 -13 -6 -22 28 -59 27
-30 44 -41 54 -35 8 4 27 10 43 12 23 3 31 11 42 43 21 60 32 67 71 44 l32
-20 -25 -36 c-13 -19 -27 -43 -30 -53 -4 -13 -13 -16 -35 -13 -44 6 -78 -5
-96 -33 -18 -28 -25 -83 -10 -88 14 -5 -25 -64 -68 -106 l-36 -35 -36 35 c-57
55 -75 90 -65 126 17 60 -32 108 -101 99 -27 -3 -38 0 -43 12 -10 26 39 54 59
35 4 -4 19 -9 33 -11 15 -2 34 -7 43 -12 17 -9 30 -4 30 11 0 4 -18 14 -41 23
l-41 17 41 29 c40 29 42 30 67 14 l25 -17 -22 -23 c-12 -13 -21 -26 -18 -28 2
-2 16 9 31 25 l26 30 -29 21 c-16 12 -29 26 -29 30 0 11 18 2 48 -25z m185 14
c4 -4 4 -22 1 -40 -5 -24 -15 -35 -42 -47 -35 -14 -37 -14 -64 14 l-28 28 42
31 c40 29 69 34 91 14z m-307 -167 c14 -4 27 -16 30 -31 11 -41 -5 -39 -49 6
-24 25 -34 41 -24 37 11 -3 30 -9 43 -12z m294 -29 c-36 -37 -46 -39 -35 -6 6
20 55 54 64 45 3 -2 -11 -20 -29 -39z"/>
<path d="M1170 3465 c13 -14 26 -25 28 -25 3 0 -5 11 -18 25 -13 14 -26 25
-28 25 -3 0 5 -11 18 -25z"/>
<path d="M1748 3399 c-7 -4 6 -8 30 -7 24 0 40 3 37 6 -9 9 -52 10 -67 1z"/>
<path d="M1579 3283 l-24 -28 28 24 c25 23 32 31 24 31 -2 0 -14 -12 -28 -27z"/>
<path d="M1880 4145 c13 -14 28 -25 33 -25 6 0 0 11 -13 25 -13 14 -28 25 -33
25 -6 0 0 -11 13 -25z"/>
<path d="M2410 4104 c0 -16 5 -36 11 -44 7 -11 8 -4 4 24 -7 49 -15 60 -15 20z"/>
<path d="M2380 4045 c-17 -40 -29 -104 -21 -110 4 -2 8 9 9 25 1 16 6 39 10
51 8 21 10 20 31 -15 19 -29 26 -34 37 -25 8 6 14 17 14 23 0 6 -7 3 -14 -7
-12 -16 -15 -15 -29 15 -8 18 -17 42 -19 53 -4 17 -7 16 -18 -10z"/>
<path d="M1895 3953 c-40 -42 -77 -101 -53 -88 7 5 20 13 28 20 8 6 27 16 42
23 22 9 26 9 22 -3 -3 -8 -16 -21 -28 -29 -23 -14 -82 -114 -73 -122 2 -3 17
12 32 33 53 72 87 96 133 96 12 0 22 4 22 10 0 21 -56 97 -71 97 -9 0 -33 -17
-54 -37z"/>
<path d="M3085 3982 c3 -3 12 -7 20 -8 29 -4 85 -26 91 -35 4 -7 -7 -8 -30 -4
-21 4 -36 3 -36 -2 0 -5 6 -10 13 -11 18 -1 49 -9 80 -21 16 -6 40 -8 53 -5
15 4 31 1 42 -8 9 -8 23 -18 30 -23 25 -14 -5 31 -35 55 -16 11 -40 30 -55 42
-22 18 -42 22 -103 24 -42 1 -73 -1 -70 -4z"/>
<path d="M3365 3960 c-16 -7 -12 -12 8 -10 1 0 25 -6 52 -15 28 -8 52 -15 54
-15 3 0 -6 11 -19 25 -24 26 -58 31 -95 15z"/>
<path d="M3490 3901 c0 -5 7 -12 16 -15 14 -5 15 -4 4 9 -14 17 -20 19 -20 6z"/>
<path d="M2393 3858 c2 -24 8 -51 12 -60 6 -15 2 -18 -19 -18 -14 0 -26 -4
-26 -8 0 -5 12 -8 28 -6 15 1 35 2 45 3 17 1 17 3 -3 31 -12 16 -20 38 -19 47
3 35 -1 53 -12 53 -8 0 -10 -15 -6 -42z"/>
<path d="M3107 3839 c-29 -17 -19 -24 33 -26 27 -1 59 -7 72 -14 12 -6 36 -13
52 -14 45 -3 67 -15 104 -54 l34 -36 -7 30 c-7 33 -63 97 -77 89 -4 -3 -8 -1
-8 4 0 25 -165 42 -203 21z"/>
<path d="M3716 3831 c-4 -5 -2 -12 3 -15 5 -4 12 -2 15 3 4 5 2 12 -3 15 -5 4
-12 2 -15 -3z"/>
<path d="M3375 3780 c3 -5 8 -10 11 -10 2 0 4 5 4 10 0 6 -5 10 -11 10 -5 0
-7 -4 -4 -10z"/>
<path d="M2552 3750 c-18 -11 -39 -20 -47 -20 -9 0 -21 -11 -27 -25 -6 -13
-18 -27 -27 -30 -18 -5 -77 1 -91 10 -15 9 -12 -1 16 -56 14 -28 20 -48 14
-44 -7 4 -5 -6 4 -23 20 -39 20 -42 -4 -37 -27 5 -26 0 16 -51 38 -46 36 -50
-18 -46 -33 3 -18 -13 37 -40 47 -22 53 -23 45 -8 -15 28 -13 30 22 30 l32 0
-34 35 c-27 28 -31 37 -21 49 10 12 8 23 -9 55 -29 58 -17 51 24 -14 23 -35
47 -60 68 -68 42 -18 73 -52 93 -101 16 -37 16 -38 -2 -31 -10 4 -38 13 -63
21 -47 14 -69 11 -29 -5 13 -5 42 -25 64 -44 31 -28 46 -34 67 -30 15 3 42 0
58 -7 39 -16 45 -10 20 18 -11 12 -20 24 -20 28 0 11 -81 107 -121 144 -58 53
-57 122 2 157 16 10 29 21 29 25 0 12 -61 -14 -67 -29 -3 -7 -18 -20 -33 -28
-26 -14 -27 -13 -38 21 -13 44 3 87 49 132 38 37 36 39 -9 12z"/>
<path d="M3265 3711 c17 -7 15 -10 -17 -20 -21 -7 -42 -10 -47 -7 -5 4 -12 2
-16 -4 -6 -10 12 -15 90 -25 42 -6 56 -13 87 -48 l37 -42 -6 35 c-3 19 -13 45
-20 57 -19 28 -78 63 -106 62 -21 0 -21 -1 -2 -8z"/>
<path d="M2927 3627 c18 -54 74 -129 132 -176 34 -27 43 -31 37 -16 -18 46
-24 154 -11 194 3 11 1 22 -4 25 -11 7 -61 -43 -61 -61 0 -21 -10 -15 -54 32
-24 25 -45 45 -48 45 -3 0 1 -19 9 -43z"/>
<path d="M3461 3634 c-17 -14 -31 -32 -31 -40 0 -17 -1 -17 46 0 39 13 47 13
112 1 23 -4 32 -3 27 4 -3 6 -13 11 -21 11 -8 0 -14 3 -14 8 0 6 -72 42 -84
42 -3 0 -18 -12 -35 -26z"/>
<path d="M1950 3583 c0 -11 12 -26 35 -43 18 -14 19 -13 8 1 -7 9 -11 18 -8
20 2 3 -5 10 -15 17 -11 7 -20 9 -20 5z"/>
<path d="M2723 3553 c-7 -3 -13 -9 -13 -14 0 -6 5 -7 10 -4 17 11 11 -21 -10
-48 -27 -34 -25 -44 10 -74 17 -13 30 -30 30 -36 0 -8 -4 -7 -12 1 -25 25 -31
11 -6 -15 14 -16 29 -35 34 -44 28 -50 67 -82 102 -84 20 -2 57 -6 82 -9 l45
-6 -32 15 c-17 8 -46 17 -64 20 -38 7 -69 22 -69 35 0 5 8 7 18 3 10 -3 3 8
-16 27 -18 18 -35 44 -39 59 -3 14 -14 37 -25 50 -24 31 -23 76 2 101 15 15
17 22 8 24 -15 5 -38 4 -55 -1z"/>
<path d="M2094 3523 c-10 -16 -27 -46 -37 -68 -10 -22 -21 -35 -25 -30 -4 6
-20 15 -37 21 -16 6 -38 15 -47 19 -11 4 -18 3 -18 -4 0 -6 6 -11 13 -12 6 0
35 -11 62 -24 34 -16 51 -20 54 -12 12 40 54 116 60 113 4 -3 8 1 8 9 0 23
-13 18 -33 -12z"/>
<path d="M3411 3528 c-7 -37 -8 -118 -2 -118 11 0 31 48 31 75 0 42 -23 76
-29 43z"/>
<path d="M3130 3500 c-5 -72 -1 -109 15 -142 l18 -38 18 30 c18 29 18 30 -16
102 -26 55 -34 67 -35 48z"/>
<path d="M2830 3495 c0 -13 30 -117 40 -137 11 -22 10 -22 -9 2 -11 14 -22 40
-26 58 -3 18 -10 30 -14 28 -16 -10 2 -56 36 -93 19 -21 32 -32 28 -25 -8 17
12 15 22 -2 12 -21 68 -46 113 -50 22 -2 47 -9 55 -16 10 -8 15 -9 15 -2 0 6
-10 16 -21 23 -17 9 -19 13 -8 20 10 6 18 0 28 -19 14 -26 14 -26 22 -4 5 13
4 32 -2 45 -11 23 -91 87 -109 87 -5 0 -10 4 -10 8 0 4 -31 24 -69 45 -63 34
-91 44 -91 32z m93 -64 c19 -10 27 -22 27 -40 1 -22 2 -24 11 -9 8 15 13 16
29 5 11 -6 20 -22 20 -35 0 -21 4 -23 25 -18 18 5 25 2 25 -8 0 -18 -27 -30
-64 -28 -32 1 -106 46 -106 65 -1 6 -3 29 -6 51 -3 21 -2 37 3 34 4 -2 20 -10
36 -17z"/>
<path d="M2960 3330 c6 -11 13 -20 16 -20 2 0 0 9 -6 20 -6 11 -13 20 -16 20
-2 0 0 -9 6 -20z"/>
<path d="M3170 3499 c0 -2 9 -29 20 -59 26 -72 25 -84 -10 -137 -16 -24 -30
-46 -30 -47 0 -2 9 -6 20 -9 12 -3 20 0 20 8 0 19 38 41 111 63 38 12 54 20
39 21 -14 0 -49 -8 -77 -18 -29 -10 -53 -15 -53 -11 0 4 6 23 14 41 13 31 12
36 -16 88 -30 56 -38 68 -38 60z"/>
<path d="M1860 3487 c0 -4 13 -26 29 -49 18 -27 25 -45 19 -49 -6 -4 -2 -11
11 -18 26 -14 26 -15 -1 45 -12 27 -21 54 -19 59 1 6 -1 7 -5 3 -4 -4 -13 -3
-21 3 -7 6 -13 9 -13 6z"/>
<path d="M2100 3423 c0 -16 5 -34 12 -41 9 -9 7 -12 -10 -12 -12 0 -22 -4 -22
-10 0 -5 14 -10 30 -10 l31 0 -16 30 c-23 44 -18 47 18 13 17 -17 42 -36 54
-42 28 -14 56 -14 48 0 -4 6 -9 8 -12 5 -9 -9 -63 24 -99 61 l-34 35 0 -29z"/>
<path d="M2460 3298 c0 -3 18 -28 40 -54 l40 -49 -32 -11 c-33 -11 -28 -25 7
-17 11 2 50 8 87 14 38 5 80 12 95 15 16 3 34 6 41 6 6 1 10 4 7 7 -7 7 -28
10 -105 14 -63 4 -115 25 -162 65 -10 8 -18 13 -18 10z"/>
<path d="M2599 3123 c0 -5 -2 -16 -4 -26 -2 -11 -1 -16 3 -13 8 8 14 46 7 46
-3 0 -5 -3 -6 -7z"/>
<path d="M2848 3109 c-33 -19 -22 -62 34 -130 72 -88 133 -139 166 -139 l27 1
-30 13 c-16 7 -41 25 -53 39 -24 25 -24 26 -9 78 16 53 15 69 -4 69 -6 0 -8
-4 -5 -8 3 -5 0 -25 -6 -45 -11 -35 -12 -36 -30 -20 -24 21 -23 37 5 57 22 16
22 16 -11 10 -31 -6 -33 -4 -27 16 17 53 -14 85 -57 59z"/>
<path d="M3540 2744 c-6 -14 -10 -30 -10 -35 0 -13 -18 -11 -23 4 -2 6 -7 9
-11 6 -3 -3 4 -17 16 -31 13 -14 29 -34 35 -44 11 -16 11 -14 2 8 -11 26 -5
98 9 98 4 0 12 -10 18 -23 12 -24 57 -110 61 -116 2 -2 5 -2 8 1 3 2 0 19 -6
37 -16 44 -6 49 20 9 11 -18 21 -28 21 -23 0 26 -57 88 -72 78 -5 -2 -16 9
-26 26 -21 38 -30 39 -42 5z"/>
<path d="M2679 2736 c-2 -2 -20 -7 -40 -10 -19 -3 -46 -10 -60 -15 l-24 -9 28
-11 c25 -10 38 -31 18 -31 -5 0 -11 -7 -15 -15 -5 -14 -2 -14 24 0 16 8 46 19
67 24 36 9 37 9 8 10 -16 1 -43 8 -60 16 l-30 13 35 2 c35 1 100 29 69 30 -9
0 -18 -2 -20 -4z"/>
<path d="M4200 2500 c8 -5 15 -15 15 -22 0 -14 34 -12 49 3 6 5 0 7 -13 4 -13
-2 -24 2 -28 10 -3 8 -13 15 -22 15 -14 0 -14 -2 -1 -10z"/>
<path d="M3641 2486 c-7 -8 -14 -24 -16 -37 -3 -12 -10 -26 -17 -31 -7 -4 -9
-8 -4 -8 5 0 3 -7 -4 -15 -7 -8 -9 -15 -6 -15 4 0 2 -9 -4 -19 -7 -15 -7 -22
2 -27 7 -4 10 -4 6 0 -3 4 4 31 17 59 13 28 22 54 19 59 -3 4 0 8 6 8 7 0 10
-6 7 -14 -3 -8 -3 -17 0 -20 6 -6 13 -41 15 -76 1 -8 11 -24 23 -36 l21 -21
17 20 c9 12 17 26 17 32 0 5 -9 -1 -19 -14 l-19 -25 -15 36 c-17 40 -32 115
-28 141 3 21 -3 22 -18 3z"/>
<path d="M4120 2483 c0 -4 17 -16 37 -26 28 -14 38 -15 47 -6 8 9 8 10 -1 5
-6 -3 -28 3 -47 15 -20 11 -36 17 -36 12z"/>
<path d="M4655 2420 c3 -5 8 -10 11 -10 2 0 4 5 4 10 0 6 -5 10 -11 10 -5 0
-7 -4 -4 -10z"/>
<path d="M4730 2419 c0 -5 5 -7 10 -4 6 3 10 8 10 11 0 2 -4 4 -10 4 -5 0 -10
-5 -10 -11z"/>
<path d="M1870 2369 c0 -4 7 -12 15 -19 22 -19 115 -167 157 -252 114 -230
160 -434 117 -515 -9 -16 -41 -39 -84 -60 l-70 -34 170 5 c197 7 206 8 218 28
8 12 -12 167 -39 303 -3 11 -7 36 -10 55 -3 19 -7 42 -9 50 -2 8 -7 35 -10 60
-3 25 -8 52 -11 61 -2 9 3 22 12 30 14 11 23 10 62 -11 107 -57 118 -170 22
-226 -16 -10 -30 -21 -30 -24 0 -3 20 -15 43 -26 121 -62 138 -199 31 -265
-19 -11 -34 -23 -34 -25 0 -3 3 -3 8 -1 4 3 32 8 62 11 30 4 73 18 97 32 43
25 93 81 93 103 0 16 -34 88 -59 125 l-20 29 51 46 c28 25 57 61 65 79 13 31
12 36 -4 55 -33 37 -117 84 -238 132 -165 65 -242 103 -281 137 -18 16 -39 28
-46 27 -34 -6 -115 17 -193 55 -47 23 -85 39 -85 35z"/>
<path d="M4695 2328 c-83 -58 -178 -105 -222 -110 -20 -2 -44 -17 -66 -39 -19
-20 -58 -47 -86 -60 -28 -13 -51 -28 -51 -32 0 -5 5 -5 10 -2 6 4 17 1 25 -5
12 -10 14 -30 10 -94 -3 -44 -8 -88 -10 -97 -3 -9 -27 -24 -53 -34 -63 -24
-72 -33 -25 -30 72 5 74 -16 17 -174 -19 -53 -37 -103 -40 -112 -7 -19 54 -80
111 -110 l42 -22 146 81 c81 45 150 82 154 82 5 0 16 7 25 14 15 11 9 13 -46
10 -76 -3 -133 12 -148 39 -21 40 -4 181 25 205 10 9 33 14 119 26 22 3 32 12
15 14 -6 0 -30 3 -52 5 -22 3 -48 5 -58 6 -14 1 -16 7 -11 29 21 90 139 318
216 415 17 21 29 39 27 41 -2 2 -35 -19 -74 -46z"/>
<path d="M2750 2364 c1 -5 7 -20 15 -34 22 -38 18 -46 -9 -21 -22 20 -142 58
-152 48 -2 -2 16 -16 41 -31 83 -53 132 -110 165 -196 7 -19 19 -42 27 -51 7
-8 13 -23 13 -32 0 -19 -48 -100 -61 -105 -5 -2 -9 -8 -9 -13 0 -18 22 3 51
49 16 25 29 59 29 74 0 21 5 28 18 28 20 0 195 -105 200 -121 2 -5 8 -9 13 -9
6 0 24 -13 42 -30 18 -16 37 -30 42 -30 14 1 -60 65 -111 97 -41 26 -41 27
-41 87 0 69 -15 132 -38 161 -16 20 -16 19 -10 -3 11 -38 13 -96 4 -117 -4
-11 -8 -14 -8 -6 -1 9 -9 5 -23 -12 -19 -21 -26 -24 -39 -14 -9 7 -15 19 -14
27 1 8 5 40 8 70 l6 55 -19 -55 c-10 -30 -19 -62 -19 -71 -1 -9 -8 -20 -17
-23 -11 -4 -14 -1 -10 12 8 26 -20 166 -43 210 -19 38 -51 73 -51 56z"/>
<path d="M3530 2360 c0 -5 4 -10 9 -10 5 0 18 -15 30 -32 11 -18 21 -27 21
-20 0 8 -9 27 -21 43 -20 29 -39 38 -39 19z"/>
<path d="M3948 2323 c7 -3 16 -2 19 1 4 3 -2 6 -13 5 -11 0 -14 -3 -6 -6z"/>
<path d="M3988 2323 c7 -3 16 -2 19 1 4 3 -2 6 -13 5 -11 0 -14 -3 -6 -6z"/>
<path d="M4397 2215 c-15 -19 -46 -44 -67 -55 -47 -24 -51 -24 -44 -6 3 8 1
17 -5 21 -6 3 -9 0 -5 -8 3 -8 -5 -19 -18 -26 l-23 -12 23 5 c32 6 27 -3 -8
-15 -16 -6 -30 -17 -30 -25 0 -8 -4 -14 -10 -14 -5 0 -1 -9 10 -20 10 -10 28
-17 39 -15 24 4 38 -12 23 -27 -5 -5 -7 -29 -5 -51 l6 -42 -29 25 c-16 14 -30
28 -32 33 -2 4 -9 7 -15 7 -6 0 1 -13 16 -28 34 -35 34 -42 -3 -77 -32 -31
-34 -43 -3 -26 10 6 30 15 46 21 20 7 27 16 28 37 1 16 2 55 2 88 l2 60 -32 3
c-55 5 -42 25 42 67 58 28 125 85 125 105 0 15 -3 13 -33 -25z"/>
<path d="M3975 2130 c3 -4 -2 -10 -10 -14 -8 -3 -15 -2 -15 2 0 4 -9 8 -20 9
-11 1 -20 -3 -20 -9 0 -6 3 -8 6 -5 4 3 15 2 25 -4 12 -6 26 -6 37 -1 27 15
42 3 42 -32 0 -19 9 -45 20 -59 19 -24 25 -25 96 -22 41 1 78 6 81 9 6 6 -21
8 -104 8 -54 0 -78 21 -80 71 -1 22 -4 41 -7 45 -10 9 -57 11 -51 2z"/>
<path d="M4069 2127 c5 -5 19 -7 32 -5 20 3 19 5 -9 9 -20 3 -29 2 -23 -4z"/>
<path d="M4140 2130 c-6 -4 9 -6 34 -5 25 0 47 3 50 5 7 8 -72 8 -84 0z"/>
<path d="M2713 2105 c3 -11 9 -31 13 -45 4 -14 8 -36 10 -50 2 -14 5 -34 7
-45 6 -29 -26 -86 -73 -129 -22 -20 -38 -41 -35 -46 9 -15 25 -12 25 4 0 8 11
23 25 34 13 11 40 33 59 49 l34 30 -19 87 c-10 48 -26 97 -35 109 -14 20 -15
20 -11 2z"/>
<path d="M3880 2110 c-9 -6 -10 -10 -3 -10 6 0 15 5 18 10 8 12 4 12 -15 0z"/>
<path d="M3933 2051 c-95 -75 -169 -178 -175 -245 -3 -27 0 -30 57 -46 117
-33 188 -84 188 -136 0 -33 -26 -54 -68 -54 -50 0 -70 21 -69 74 l1 45 -41
-42 c-23 -23 -62 -64 -89 -89 l-47 -48 42 -27 c24 -15 73 -49 110 -76 l67 -48
43 23 c80 43 138 92 174 145 39 59 72 145 58 150 -33 11 -178 101 -208 129
-50 47 -47 86 7 99 61 16 104 -27 98 -98 -3 -28 -2 -28 16 -10 11 10 45 42 76
71 31 30 57 57 57 61 0 4 -13 17 -29 29 -24 17 -38 20 -83 15 -47 -5 -58 -2
-81 18 -24 21 -34 45 -36 87 -1 20 -16 14 -68 -27z"/>
<path d="M2338 2065 c-3 -3 -2 -25 2 -48 5 -23 10 -58 13 -77 14 -101 27 -110
77 -53 27 30 31 42 26 71 -6 38 -36 76 -78 98 -30 16 -32 16 -40 9z m45 -37
c58 -30 76 -77 48 -121 -12 -19 -21 -26 -22 -17 -5 57 -11 74 -33 101 -38 45
-35 60 7 37z"/>
<path d="M2880 2044 c0 -35 -59 -121 -121 -178 -34 -31 -66 -56 -71 -56 -14 0
-9 -18 33 -106 61 -129 138 -202 230 -219 34 -6 39 -3 135 89 l99 96 -60 -30
c-70 -35 -120 -38 -174 -11 -92 47 -100 152 -17 206 31 20 54 14 91 -25 38
-40 28 -60 -32 -61 -26 -1 -52 -2 -58 -4 -5 -1 -14 -3 -19 -3 -13 -3 42 -60
78 -82 20 -13 36 -16 56 -10 37 11 106 58 150 104 28 30 32 40 24 54 -17 27
-136 124 -227 186 -102 68 -117 74 -117 50z"/>
<path d="M4188 2043 c6 -2 18 -2 25 0 6 3 1 5 -13 5 -14 0 -19 -2 -12 -5z"/>
<path d="M3700 1988 c-30 -11 -86 -22 -125 -24 -38 -2 -87 -6 -107 -10 -46 -8
-83 1 -109 27 l-20 20 -32 -23 c-33 -23 -61 -52 -76 -78 -7 -12 5 -32 51 -80
33 -36 57 -57 54 -47 -3 11 5 29 22 48 23 25 38 32 78 36 43 4 53 1 81 -24 40
-36 52 -68 48 -127 -3 -54 -37 -111 -89 -151 -33 -25 -37 -26 -51 -11 -19 19
-42 21 -47 4 -6 -16 -55 -2 -67 20 -15 29 21 80 74 103 43 19 88 20 128 4 9
-4 17 -3 17 1 0 5 -33 28 -72 51 l-72 42 -50 -27 c-28 -15 -79 -55 -115 -89
l-64 -62 18 -28 c20 -32 40 -51 74 -75 22 -16 28 -15 102 12 79 29 96 27 84
-9 -7 -23 -11 -44 -19 -97 -3 -22 -9 -52 -12 -68 -6 -26 4 -19 82 56 49 47
139 133 199 191 l110 106 -40 -6 c-68 -9 -89 45 -54 143 11 33 22 66 24 74 2
8 12 39 23 68 11 28 17 52 14 51 -4 0 -32 -10 -62 -21z"/>
<path d="M4238 2003 c7 -3 16 -2 19 1 4 3 -2 6 -13 5 -11 0 -14 -3 -6 -6z"/>
<path d="M1618 1943 c6 -2 18 -2 25 0 6 3 1 5 -13 5 -14 0 -19 -2 -12 -5z"/>
<path d="M1857 1909 c7 -7 15 -10 18 -7 3 3 -2 9 -12 12 -14 6 -15 5 -6 -5z"/>
<path d="M1890 1895 c0 -2 17 -13 38 -23 20 -10 54 -29 75 -41 20 -13 37 -19
37 -14 0 5 -12 16 -27 24 -16 8 -30 16 -33 19 -6 6 -79 40 -85 40 -3 0 -5 -2
-5 -5z"/>
<path d="M3395 1828 c-37 -21 -48 -54 -16 -45 13 3 45 -11 88 -39 37 -24 71
-44 76 -44 11 0 8 38 -7 74 -24 59 -89 83 -141 54z m94 -22 l24 -13 -23 -16
c-21 -15 -26 -15 -54 1 -17 9 -33 18 -35 19 -1 1 0 6 4 12 9 15 55 13 84 -3z
m44 -66 c6 -23 6 -24 -27 -8 -24 10 -24 12 -8 24 20 15 28 11 35 -16z"/>
<path d="M1714 1786 c-33 -24 -75 -60 -94 -80 l-34 -36 24 -46 c26 -48 30 -52
68 -57 30 -4 40 -21 36 -58 -2 -18 0 -28 6 -24 6 3 10 30 10 60 l0 54 -57 18
c-78 24 -80 44 -11 109 29 27 69 61 88 76 19 15 32 27 29 28 -4 0 -33 -20 -65
-44z"/>
<path d="M1798 1823 c7 -3 16 -2 19 1 4 3 -2 6 -13 5 -11 0 -14 -3 -6 -6z"/>
<path d="M2945 1818 c-24 -14 -45 -40 -39 -49 3 -6 116 -1 122 6 4 4 -51 55
-58 55 -3 0 -14 -6 -25 -12z m53 -34 c2 -1 -13 -4 -32 -6 -41 -5 -41 -5 -20
17 13 13 19 13 33 3 9 -7 17 -13 19 -14z"/>
<path d="M3718 1813 c0 -5 -2 -12 -3 -18 -1 -5 -6 -18 -10 -29 -12 -28 7 -70
34 -74 13 -2 27 1 30 7 5 7 16 6 35 -4 33 -17 36 -18 36 -7 0 10 -39 29 -55
27 -5 -1 -21 -5 -34 -9 -22 -8 -40 4 -41 26 0 10 82 -3 114 -18 20 -9 33 -11
40 -4 10 10 12 9 -74 38 -49 17 -55 22 -53 46 2 22 -14 39 -19 19z"/>
<path d="M4118 1790 c-16 -16 -28 -32 -28 -37 0 -4 28 -21 61 -37 57 -28 61
-31 55 -59 -7 -35 -35 -97 -72 -157 -22 -37 -24 -42 -7 -27 12 10 30 17 41 15
21 -3 25 3 16 27 -4 8 8 50 25 93 33 81 36 94 23 90 -10 -4 -94 33 -109 48 -9
9 -7 17 11 34 13 12 26 17 30 12 3 -5 24 -8 46 -6 44 3 44 3 31 -44 -5 -17 -6
-32 -1 -32 7 0 23 67 21 87 -1 5 -18 9 -39 10 -20 0 -46 4 -57 7 -14 4 -28 -3
-47 -24z"/>
<path d="M3250 1794 c0 -9 -16 -32 -35 -51 -19 -19 -35 -37 -35 -39 0 -2 9 -8
20 -14 15 -8 24 -6 42 9 13 11 34 28 47 38 l24 19 -25 27 c-29 31 -38 34 -38
11z m19 -40 c-17 -21 -31 -17 -19 6 6 11 15 18 21 14 6 -4 6 -11 -2 -20z"/>
<path d="M2380 1782 c0 -5 9 -57 20 -116 11 -60 17 -112 15 -116 -3 -5 -1 -11
4 -15 16 -9 78 58 86 93 10 47 -24 112 -74 140 -42 24 -51 26 -51 14z m105
-98 c21 -45 12 -65 -28 -57 -41 8 -44 14 -45 79 l0 53 28 -21 c16 -12 36 -36
45 -54z m-22 -106 c-21 -23 -29 -23 -36 2 -4 17 -1 20 24 18 27 -2 27 -3 12
-20z"/>
<path d="M4190 1756 c0 -2 7 -7 16 -10 8 -3 12 -2 9 4 -6 10 -25 14 -25 6z"/>
<path d="M3383 1650 c-43 -26 -66 -60 -51 -77 16 -20 31 -1 37 48 1 11 41 18
41 8 0 -5 -7 -9 -15 -9 -22 0 -18 -11 12 -37 31 -27 41 -28 69 -5 24 21 59 71
52 77 -2 2 -29 6 -60 9 -42 3 -62 0 -85 -14z"/>
<path d="M1349 1638 c-5 -19 -8 -50 -4 -46 7 7 15 48 9 48 -2 0 -4 -1 -5 -2z"/>
<path d="M2693 1561 c-23 -30 -107 -76 -156 -85 -15 -3 -35 -7 -45 -10 -30 -9
-75 -16 -152 -22 -41 -3 -77 -8 -79 -10 -1 -1 4 -13 13 -26 9 -12 16 -35 16
-49 0 -54 -151 -308 -222 -375 -18 -17 -52 -42 -76 -56 -23 -13 -40 -27 -37
-30 12 -11 -38 -134 -81 -200 -24 -37 -41 -68 -39 -68 4 0 70 28 190 80 22 10
111 42 197 71 87 30 158 56 158 59 0 3 -26 7 -57 8 -35 1 -63 8 -72 17 -13 13
-13 20 6 57 12 24 48 76 80 117 57 73 59 75 108 78 28 2 68 5 90 7 22 2 43 2
46 0 15 -8 -22 -161 -51 -206 -33 -53 -37 -50 40 -34 14 3 36 8 50 11 14 3 36
8 50 11 14 3 34 7 45 8 11 2 44 7 73 11 l53 8 -32 33 -32 33 7 173 c6 171 13
272 21 295 2 6 -8 24 -23 40 -15 15 -36 41 -47 56 l-20 28 -22 -30z m-88 -313
c-4 -42 -12 -78 -20 -83 -7 -6 -46 -12 -86 -13 l-74 -2 50 51 c28 29 64 67 80
85 48 53 58 46 50 -38z"/>
<path d="M2532 1233 c-29 -31 -52 -57 -52 -59 0 -2 67 2 91 5 7 1 22 101 16
107 -2 2 -27 -22 -55 -53z m39 -10 c-6 -22 -51 -54 -51 -36 0 6 51 63 56 63 1
0 -1 -12 -5 -27z"/>
<path d="M1769 1578 c-5 -15 -4 -49 1 -58 6 -10 90 17 90 30 0 9 -88 36 -91
28z"/>
<path d="M1650 1550 c0 -5 5 -10 11 -10 5 0 7 5 4 10 -3 6 -8 10 -11 10 -2 0
-4 -4 -4 -10z"/>
<path d="M3085 1505 c-16 -17 -48 -45 -70 -62 l-40 -30 -54 18 c-30 11 -56 17
-58 15 -3 -2 -6 -42 -8 -88 -2 -45 -7 -131 -9 -190 l-6 -107 63 -21 c34 -11
78 -29 97 -39 l35 -19 76 69 77 69 -35 35 c-19 19 -36 35 -38 35 -1 0 0 -11 3
-25 6 -34 -14 -55 -53 -55 -43 0 -75 38 -75 88 0 45 56 102 101 102 44 0 95
-25 102 -49 7 -30 2 -323 -7 -343 -4 -9 -23 -29 -42 -43 -38 -29 -64 -27 -109
9 l-29 23 35 16 c19 9 53 21 77 27 23 6 42 13 42 15 0 5 -97 -2 -130 -10 -14
-3 -36 -8 -50 -11 -50 -10 -130 -38 -131 -46 -1 -4 -1 -15 -1 -23 0 -8 0 -19
1 -24 0 -5 31 -19 69 -32 37 -12 96 -37 131 -55 l64 -33 36 28 c40 32 173 101
194 101 28 0 36 21 22 60 -38 107 -37 398 2 524 4 14 1 18 -10 13 -71 -27 -94
-29 -131 -12 -20 10 -53 36 -74 59 l-37 41 -30 -30z"/>
<path d="M1926 1523 c-4 -4 -11 -8 -14 -8 -4 -1 -28 -10 -54 -22 -25 -12 -56
-24 -67 -28 -12 -3 -21 -12 -22 -18 -5 -68 -3 -89 11 -101 27 -22 66 -34 82
-25 9 5 24 10 34 12 11 2 39 10 64 17 25 7 48 13 53 12 4 -1 7 1 8 6 10 85 9
102 -6 102 -8 0 -20 11 -25 25 -5 14 -14 25 -19 25 -5 0 -16 2 -23 5 -8 3 -18
2 -22 -2z m62 -63 c15 -10 22 -25 22 -46 0 -35 -2 -37 -100 -64 -55 -16 -68
-17 -90 -5 -22 11 -27 21 -26 51 1 35 2 37 71 64 70 28 81 28 123 0z"/>
<path d="M4495 1419 c-71 -37 -137 -68 -146 -69 -18 0 -119 64 -156 99 -12 12
-25 21 -29 21 -11 0 -110 -77 -149 -116 -32 -32 -46 -64 -27 -64 15 0 165
-153 187 -192 19 -33 21 -46 13 -68 -11 -33 -46 -45 -82 -29 -35 16 -52 74
-34 112 10 21 -7 24 -19 3 -4 -8 -43 -51 -85 -95 -43 -45 -78 -85 -78 -89 0
-4 21 -8 48 -8 91 -3 166 -14 319 -50 61 -14 65 -14 93 6 55 39 91 18 84 -50
l-4 -35 83 -32 c196 -78 341 -132 343 -130 2 1 -56 96 -128 210 l-130 207 -33
-20 c-59 -37 -82 -26 -103 45 -11 37 -18 43 -99 83 -167 82 -217 122 -190 149
36 36 106 8 136 -54 11 -23 20 -31 31 -25 8 4 40 6 72 6 l56 -2 16 42 c9 22
40 72 69 110 74 98 80 106 76 105 -2 -1 -62 -33 -134 -70z"/>
<path d="M2079 1468 c0 -2 -2 -20 -4 -40 -3 -43 0 -45 65 -22 25 9 53 16 62
17 32 2 19 14 -31 31 -44 14 -90 21 -92 14z m45 -47 c3 -5 0 -11 -8 -14 -15
-6 -26 1 -26 15 0 11 27 10 34 -1z"/>
<path d="M3519 1341 c-64 -65 -119 -123 -122 -128 -10 -16 31 -132 64 -184 16
-25 45 -60 64 -78 46 -42 145 -111 159 -111 12 0 91 69 205 178 l66 62 -48
-20 c-26 -11 -73 -27 -103 -36 -53 -15 -55 -15 -107 9 -68 32 -96 58 -112 104
-17 48 -2 81 57 123 l41 30 38 -22 c22 -12 46 -32 54 -45 15 -22 14 -24 -10
-33 -14 -5 -29 -9 -33 -9 -4 1 -28 1 -54 0 -34 -1 -48 -5 -48 -15 0 -30 119
-108 150 -99 42 13 159 76 190 101 l35 29 -70 67 c-60 57 -176 146 -191 146
-2 0 -22 11 -44 25 -22 14 -45 25 -52 24 -7 0 -65 -54 -129 -118z"/>
<path d="M1678 1419 c-26 -15 -22 -26 12 -38 17 -5 30 -9 31 -8 1 1 2 14 3 30
3 29 -14 35 -46 16z"/>
<path d="M2220 1376 c-19 -7 -38 -13 -43 -14 -4 0 -30 -6 -57 -13 -53 -13 -57
-20 -56 -88 1 -39 5 -47 31 -62 71 -42 78 -39 129 51 25 45 46 95 46 111 0 32
-1 33 -50 15z m32 -43 c-16 -41 -75 -143 -82 -143 -4 0 -24 7 -44 15 -34 14
-36 18 -36 60 0 43 1 45 38 54 20 5 53 14 72 19 53 15 60 14 52 -5z"/>
<path d="M1961 1304 c-24 -7 -46 -16 -48 -18 -5 -4 83 -46 96 -46 4 0 8 18 9
40 2 22 -1 40 -5 39 -4 -1 -28 -7 -52 -15z m49 -28 c0 -3 -4 -8 -10 -11 -5 -3
-10 -1 -10 4 0 6 5 11 10 11 6 0 10 -2 10 -4z"/>
<path d="M4195 1300 c-9 -14 10 -36 48 -55 37 -18 47 -19 47 -2 0 31 -81 80
-95 57z m71 -47 c-7 -7 -26 7 -26 19 0 6 6 6 15 -2 9 -7 13 -15 11 -17z"/>
<path d="M3653 1246 c-51 -33 -42 -44 37 -44 39 0 70 3 70 7 0 8 -27 31 -56
47 -15 9 -26 7 -51 -10z m57 -16 c12 -8 9 -10 -13 -10 -16 0 -26 4 -22 10 8
12 16 12 35 0z"/>
<path d="M2799 1187 c-3 -165 4 -217 32 -217 6 0 20 -10 30 -21 15 -17 24 -20
46 -13 15 4 30 8 33 9 3 1 20 5 38 9 17 4 32 11 32 14 -1 8 -109 56 -150 68
-33 9 -51 24 -44 36 9 15 11 67 2 62 -4 -3 -8 0 -8 5 0 6 5 11 10 11 17 0 12
87 -5 94 -12 4 -15 -6 -16 -57z m91 -184 c48 -16 93 -43 72 -43 -6 0 -13 0
-14 1 -2 0 -15 -4 -31 -10 -23 -9 -31 -7 -50 9 -12 11 -30 27 -39 35 -10 8
-18 20 -18 26 0 7 7 8 18 4 9 -4 37 -14 62 -22z"/>
<path d="M3010 1172 c0 -13 15 -29 36 -40 16 -9 26 -8 40 3 16 11 16 14 4 18
-68 22 -80 25 -80 19z"/>
<path d="M4097 1123 c-18 -35 -13 -84 10 -100 15 -11 21 -10 40 11 26 28 22
52 -15 94 l-21 24 -14 -29z m38 -53 c-6 -30 -13 -36 -27 -22 -9 9 -9 15 0 24
15 15 16 32 2 23 -11 -7 -14 8 -4 18 12 11 33 -21 29 -43z"/>
<path d="M2496 1102 c-2 -1 -21 -3 -44 -4 -36 -1 -74 -21 -61 -32 15 -12 150
-68 154 -64 3 3 8 28 12 55 l5 50 -32 -1 c-17 0 -33 -2 -34 -4z m53 -36 c0 -6
-3 -19 -7 -28 -6 -16 -12 -15 -62 10 l-55 27 50 5 c57 6 75 3 74 -14z"/>
<path d="M3155 1067 c-11 -12 -37 -36 -58 -53 -20 -17 -37 -34 -37 -36 0 -3
17 -4 38 -3 20 1 47 3 58 4 19 1 23 8 26 47 4 58 -2 68 -27 41z m11 -63 c-3
-8 -19 -14 -38 -14 l-32 0 34 29 c27 22 36 26 38 14 2 -8 1 -21 -2 -29z"/>
<path d="M3098 914 c-54 -17 -59 -26 -22 -42 22 -11 30 -9 60 14 57 44 45 54
-38 28z m12 -29 c-7 -8 -17 -12 -22 -9 -6 4 -5 10 3 15 22 14 33 10 19 -6z"/>
<path d="M2770 898 c0 -10 42 -27 53 -21 19 11 5 32 -23 31 -16 -1 -30 -5 -30
-10z"/>
<path d="M3785 3359 c-4 -5 -3 -8 2 -7 4 2 19 -8 32 -21 l23 -23 -31 7 c-35 8
-44 -10 -10 -20 29 -9 58 19 43 42 -13 21 -51 35 -59 22z"/>
<path d="M4310 3265 c7 -9 15 -13 17 -11 7 7 -7 26 -19 26 -6 0 -6 -6 2 -15z"/>
<path d="M1425 3140 c10 -11 20 -20 23 -20 3 0 -3 9 -13 20 -10 11 -20 20 -23
20 -3 0 3 -9 13 -20z"/>
<path d="M1466 3112 c22 -21 220 -169 234 -176 30 -15 -30 34 -159 129 -65 48
-104 72 -75 47z"/>
<path d="M800 2952 c-19 -1 -57 -7 -85 -13 -27 -6 -63 -13 -80 -16 -41 -7
-127 -40 -151 -58 -10 -8 14 -2 53 14 40 17 87 32 105 35 18 3 44 8 58 10 62
11 100 15 163 17 37 1 70 5 72 9 4 7 -63 8 -135 2z"/>
<path d="M950 2948 c0 -4 48 -8 108 -9 59 0 127 -2 152 -4 25 -2 76 -7 114
-10 38 -3 72 -7 75 -10 4 -2 13 0 20 4 13 8 -47 16 -204 27 -153 10 -265 11
-265 2z"/>
<path d="M1446 2918 c3 -4 9 -8 15 -8 5 0 9 4 9 8 0 5 -7 9 -15 9 -8 0 -12 -4
-9 -9z"/>
<path d="M1493 2913 c9 -2 23 -2 30 0 6 3 -1 5 -18 5 -16 0 -22 -2 -12 -5z"/>
<path d="M1730 2820 c0 -5 5 -10 11 -10 5 0 7 5 4 10 -3 6 -8 10 -11 10 -2 0
-4 -4 -4 -10z"/>
<path d="M334 2705 c-9 -14 -15 -27 -13 -30 3 -2 12 10 21 26 21 36 15 39 -8
4z"/>
<path d="M1787 2639 c7 -7 15 -10 18 -7 3 3 -2 9 -12 12 -14 6 -15 5 -6 -5z"/>
<path d="M630 2681 c0 -6 4 -13 10 -16 6 -3 7 1 4 9 -7 18 -14 21 -14 7z"/>
<path d="M690 2543 c0 -4 5 -15 10 -23 8 -13 10 -13 10 2 0 9 -4 20 -10 23 -5
3 -10 3 -10 -2z"/>
<path d="M341 2465 c1 -19 18 -51 18 -35 0 8 -4 22 -9 30 -5 8 -9 11 -9 5z"/>
<path d="M737 2399 c4 -13 8 -18 11 -10 2 7 -1 18 -6 23 -8 8 -9 4 -5 -13z"/>
<path d="M750 2365 c0 -5 5 -17 10 -25 5 -8 10 -10 10 -5 0 6 -5 17 -10 25 -5
8 -10 11 -10 5z"/>
<path d="M386 2330 c7 -28 12 -35 18 -29 2 2 -2 15 -10 29 l-15 25 7 -25z"/>
<path d="M400 2289 c0 -4 7 -22 15 -40 8 -19 14 -27 14 -19 0 14 -28 72 -29
59z"/>
<path d="M450 2145 c0 -5 5 -17 10 -25 5 -8 10 -10 10 -5 0 6 -5 17 -10 25 -5
8 -10 11 -10 5z"/>
<path d="M4315 2662 c-29 -55 -30 -58 -14 -42 16 17 42 71 36 76 -2 2 -12 -13
-22 -34z"/>
<path d="M1077 2633 c-2 -5 -8 -21 -12 -38 -5 -16 -9 -33 -10 -37 -2 -5 -3
-12 -4 -18 0 -5 -18 -10 -38 -10 -36 0 -123 -32 -123 -45 0 -3 17 2 37 10 35
15 100 21 132 14 11 -3 15 6 17 31 1 19 7 48 13 63 6 16 11 30 11 33 0 7 -19
4 -23 -3z"/>
<path d="M1024 2608 c-52 -40 -81 -71 -61 -64 10 3 31 6 46 6 23 0 28 6 38 40
5 22 9 40 8 40 -1 0 -15 -10 -31 -22z"/>
<path d="M1250 2626 c0 -2 7 -9 15 -16 13 -11 14 -10 9 4 -5 14 -24 23 -24 12z"/>
<path d="M1290 2596 c0 -2 7 -7 16 -10 8 -3 12 -2 9 4 -6 10 -25 14 -25 6z"/>
<path d="M906 2308 c11 -18 72 -38 115 -38 32 0 40 -3 36 -14 -7 -18 22 -96
35 -96 5 0 7 4 4 8 -7 11 -17 70 -18 103 -1 24 -4 26 -27 20 -35 -10 -88 -4
-123 13 -15 8 -25 10 -22 4z"/>
<path d="M1435 2269 c-4 -6 -5 -12 -2 -15 2 -3 7 2 10 11 7 17 1 20 -8 4z"/>
<path d="M983 2232 c12 -13 34 -32 48 -43 l26 -18 -10 39 c-10 35 -14 39 -48
42 l-38 3 22 -23z"/>
<path d="M1321 2251 c-10 -6 1 -8 30 -4 24 3 46 7 48 9 10 9 -65 3 -78 -5z"/>
<path d="M1406 2233 c-6 -14 -5 -15 5 -6 7 7 10 15 7 18 -3 3 -9 -2 -12 -12z"/>
<path d="M1210 2223 c-8 -4 -30 -17 -48 -31 -30 -23 -32 -27 -18 -41 9 -8 17
-13 18 -10 2 2 18 23 36 47 18 23 32 42 30 41 -2 0 -10 -3 -18 -6z"/>
<path d="M1280 2200 c-8 -5 -10 -10 -5 -10 6 0 17 5 25 10 8 5 11 10 5 10 -5
0 -17 -5 -25 -10z"/>
<path d="M1720 2203 c-79 -19 -86 -22 -40 -18 64 6 157 30 144 36 -5 3 -52 -5
-104 -18z"/>
<path d="M5034 2225 c-10 -8 -14 -14 -9 -14 6 0 19 6 29 14 11 8 15 15 10 15
-6 0 -19 -7 -30 -15z"/>
<path d="M4945 2179 c-16 -10 -25 -19 -20 -19 6 0 24 9 40 20 17 11 26 20 20
19 -5 0 -23 -9 -40 -20z"/>
<path d="M4884 2144 c-18 -14 -18 -15 4 -4 12 6 22 13 22 15 0 8 -5 6 -26 -11z"/>
<path d="M4745 2074 c-55 -29 -97 -54 -92 -54 9 0 134 62 179 90 64 39 12 17
-87 -36z"/>
<path d="M1950 1765 c0 -5 5 -17 10 -25 5 -8 10 -10 10 -5 0 6 -5 17 -10 25
-5 8 -10 11 -10 5z"/>
<path d="M356 1930 c7 -27 21 -40 45 -40 17 0 39 19 39 34 0 6 -5 5 -12 -2
-19 -19 -54 -14 -67 11 -11 22 -11 22 -5 -3z"/>
<path d="M574 1838 l-19 -23 23 19 c21 18 27 26 19 26 -2 0 -12 -10 -23 -22z"/>
<path d="M1198 1740 c-12 -17 -23 -36 -24 -43 -1 -6 -5 -28 -9 -47 -3 -19 -3
-32 0 -28 3 3 8 17 11 32 7 41 20 69 43 94 12 12 17 22 12 22 -6 0 -20 -14
-33 -30z"/>
<path d="M601 1702 c6 -18 15 -35 20 -38 5 -3 4 7 -3 23 -17 41 -30 53 -17 15z"/>
<path d="M4650 1132 c0 -5 7 -9 15 -9 8 0 12 4 9 9 -3 4 -9 8 -15 8 -5 0 -9
-4 -9 -8z"/>
<path d="M4695 1130 c5 -8 42 -6 50 1 2 3 -8 5 -25 5 -16 0 -27 -3 -25 -6z"/>
<path d="M1455 1180 c-10 -12 -24 -19 -31 -16 -7 3 -11 0 -8 -7 2 -7 23 -12
49 -12 33 0 45 4 49 18 2 10 -3 21 -14 27 -24 13 -24 13 -45 -10z"/>
<path d="M1525 1159 c-4 -6 -5 -12 -2 -15 2 -3 7 2 10 11 7 17 1 20 -8 4z"/>
<path d="M1570 1142 c9 -18 8 -23 -5 -28 -8 -3 -22 -4 -30 0 -22 8 -18 -2 6
-14 15 -9 24 -8 35 1 9 8 14 8 14 1 0 -6 7 -9 15 -6 8 4 12 10 9 15 -3 5 -10
7 -15 4 -5 -4 -9 -2 -9 2 0 5 -7 18 -16 29 -14 18 -15 18 -4 -4z"/>
<path d="M1500 1122 c0 -6 -8 -9 -17 -6 -15 5 -16 4 -3 -5 16 -11 40 3 27 16
-4 3 -7 1 -7 -5z"/>
<path d="M1524 1069 c-8 -14 16 -20 36 -9 14 8 20 8 20 0 0 -7 8 -9 21 -5 15
5 19 4 15 -4 -4 -6 -3 -11 2 -11 5 0 12 8 14 18 4 15 -3 17 -49 17 -30 0 -57
-3 -59 -6z"/>
<path d="M1770 984 c-17 -9 -20 -14 -9 -14 9 0 22 7 29 15 15 18 13 18 -20 -1z"/>
<path d="M1789 939 l-24 -20 28 17 c15 9 27 18 27 20 0 8 -8 4 -31 -17z"/>
<path d="M1803 910 c-13 -5 -23 -15 -23 -22 0 -8 3 -9 8 -3 4 6 18 16 32 22
29 14 15 16 -17 3z"/>
<path d="M1700 878 c-14 -17 -30 -36 -36 -42 -12 -12 28 -142 49 -161 6 -5 8
-6 5 -1 -8 10 25 61 57 88 11 10 16 17 11 18 -4 0 -26 -19 -47 -41 -34 -36
-39 -38 -39 -20 0 18 22 50 68 97 7 8 9 14 3 14 -5 0 -25 -18 -44 -40 l-34
-40 -12 26 c-8 18 -8 30 -1 39 5 6 8 14 5 16 -2 3 7 18 20 33 21 25 32 46 23
46 -2 0 -14 -14 -28 -32z"/>
<path d="M1595 840 c3 -5 8 -10 11 -10 2 0 4 5 4 10 0 6 -5 10 -11 10 -5 0 -7
-4 -4 -10z"/>
<path d="M1709 833 c-13 -16 -12 -17 4 -4 16 13 21 21 13 21 -2 0 -10 -8 -17
-17z"/>
<path d="M1570 780 c0 -5 5 -10 11 -10 5 0 7 5 4 10 -3 6 -8 10 -11 10 -2 0
-4 -4 -4 -10z"/>
<path d="M1607 770 c3 -11 9 -20 15 -20 5 0 4 9 -2 20 -6 11 -12 20 -14 20 -2
0 -2 -9 1 -20z"/>
<path d="M1581 744 c0 -11 3 -14 6 -6 3 7 2 16 -1 19 -3 4 -6 -2 -5 -13z"/>
<path d="M1590 716 c0 -15 43 -86 53 -86 6 0 3 8 -5 18 -9 9 -23 31 -31 47 -9
17 -16 26 -17 21z"/>
<path d="M2253 717 c-23 -7 -45 -15 -49 -19 -7 -8 13 -4 63 11 17 5 35 6 39 3
4 -4 4 -1 0 6 -4 6 -8 12 -9 11 -1 -1 -21 -6 -44 -12z"/>
<path d="M2246 661 c-4 -5 3 -7 14 -4 23 6 26 13 6 13 -8 0 -17 -4 -20 -9z"/>
<path d="M1628 513 c7 -3 16 -2 19 1 4 3 -2 6 -13 5 -11 0 -14 -3 -6 -6z"/>
<path d="M2500 384 c-29 -32 -40 -50 -34 -62 4 -9 9 -29 11 -44 3 -14 18 -41
34 -60 l29 -33 29 33 c16 19 31 46 34 60 3 15 8 36 11 47 5 15 -4 32 -32 62
l-40 43 -42 -46z m69 -7 c18 -20 20 -28 11 -51 -5 -15 -10 -38 -10 -50 0 -13
-7 -29 -15 -36 -21 -18 -45 4 -45 42 0 16 -5 38 -10 48 -8 15 -6 25 12 45 27
31 29 31 57 2z"/>
<path d="M2319 353 c-13 -16 -12 -17 4 -4 16 13 21 21 13 21 -2 0 -10 -8 -17
-17z"/>
<path d="M1294 3208 l-29 -31 33 23 c17 13 32 27 32 32 0 13 -5 10 -36 -24z"/>
<path d="M1024 3128 l-29 -33 33 29 c17 17 32 31 32 33 0 8 -8 1 -36 -29z"/>
<path d="M4780 3109 c0 -4 15 -23 33 -43 32 -34 78 -49 91 -28 6 11 -33 72
-47 74 -33 4 -77 2 -77 -3z"/>
</g>
</svg>
